<svg width="40" height="40" viewBox="0 0 40 40" fill="none" xmlns="http://www.w3.org/2000/svg">
<path d="M37.1634 27.2094C37.6134 26.7594 37.6134 26.0094 37.1634 25.5594L30.4884 18.8844C27.4259 15.8219 23.2634 14.1094 18.9384 14.1344C18.3634 14.1344 17.8009 13.9094 17.4009 13.4969L14.1759 10.2844L10.3134 14.1469L13.5384 17.3719C13.9509 17.7844 14.1759 18.3344 14.1759 18.9219C14.1509 23.2594 15.8509 27.4219 18.9134 30.4844L25.5884 37.1594C26.0384 37.6094 26.7759 37.6094 27.2384 37.1594L37.1634 27.2094Z" fill="url(#paint0_linear_48402_399)"/>
<path d="M37.1634 27.2094C37.6134 26.7594 37.6134 26.0094 37.1634 25.5594L30.4884 18.8844C27.4259 15.8219 23.2634 14.1094 18.9384 14.1344C18.3634 14.1344 17.8009 13.9094 17.4009 13.4969L14.1759 10.2844L10.3134 14.1469L13.5384 17.3719C13.9509 17.7844 14.1759 18.3344 14.1759 18.9219C14.1509 23.2594 15.8509 27.4219 18.9134 30.4844L25.5884 37.1594C26.0384 37.6094 26.7759 37.6094 27.2384 37.1594L37.1634 27.2094Z" fill="url(#paint1_linear_48402_399)"/>
<path d="M37.1634 27.2094C37.6134 26.7594 37.6134 26.0094 37.1634 25.5594L30.4884 18.8844C27.4259 15.8219 23.2634 14.1094 18.9384 14.1344C18.3634 14.1344 17.8009 13.9094 17.4009 13.4969L14.1759 10.2844L10.3134 14.1469L13.5384 17.3719C13.9509 17.7844 14.1759 18.3344 14.1759 18.9219C14.1509 23.2594 15.8509 27.4219 18.9134 30.4844L25.5884 37.1594C26.0384 37.6094 26.7759 37.6094 27.2384 37.1594L37.1634 27.2094Z" fill="url(#paint2_radial_48402_399)"/>
<path d="M37.1634 27.2094C37.6134 26.7594 37.6134 26.0094 37.1634 25.5594L30.4884 18.8844C27.4259 15.8219 23.2634 14.1094 18.9384 14.1344C18.3634 14.1344 17.8009 13.9094 17.4009 13.4969L14.1759 10.2844L10.3134 14.1469L13.5384 17.3719C13.9509 17.7844 14.1759 18.3344 14.1759 18.9219C14.1509 23.2594 15.8509 27.4219 18.9134 30.4844L25.5884 37.1594C26.0384 37.6094 26.7759 37.6094 27.2384 37.1594L37.1634 27.2094Z" fill="url(#paint3_radial_48402_399)"/>
<path d="M37.1634 27.2094C37.6134 26.7594 37.6134 26.0094 37.1634 25.5594L30.4884 18.8844C27.4259 15.8219 23.2634 14.1094 18.9384 14.1344C18.3634 14.1344 17.8009 13.9094 17.4009 13.4969L14.1759 10.2844L10.3134 14.1469L13.5384 17.3719C13.9509 17.7844 14.1759 18.3344 14.1759 18.9219C14.1509 23.2594 15.8509 27.4219 18.9134 30.4844L25.5884 37.1594C26.0384 37.6094 26.7759 37.6094 27.2384 37.1594L37.1634 27.2094Z" fill="url(#paint4_radial_48402_399)"/>
<path d="M19.6758 14.1595C19.4383 14.147 19.1883 14.147 18.9383 14.147C18.3633 14.147 17.8008 13.922 17.4008 13.5095L13.7508 9.8595L9.88831 13.7345L13.5258 17.3845C13.9383 17.797 14.1633 18.347 14.1633 18.9345C14.1633 19.1845 14.1633 19.422 14.1758 19.672L18.1383 19.122C18.6508 19.047 19.0508 18.647 19.1258 18.1345L19.6758 14.1595Z" fill="url(#paint5_linear_48402_399)"/>
<path d="M19.6758 14.1595C19.4383 14.147 19.1883 14.147 18.9383 14.147C18.3633 14.147 17.8008 13.922 17.4008 13.5095L13.7508 9.8595L9.88831 13.7345L13.5258 17.3845C13.9383 17.797 14.1633 18.347 14.1633 18.9345C14.1633 19.1845 14.1633 19.422 14.1758 19.672L18.1383 19.122C18.6508 19.047 19.0508 18.647 19.1258 18.1345L19.6758 14.1595Z" fill="url(#paint6_linear_48402_399)"/>
<path d="M19.6758 14.1595C19.4383 14.147 19.1883 14.147 18.9383 14.147C18.3633 14.147 17.8008 13.922 17.4008 13.5095L13.7508 9.8595L9.88831 13.7345L13.5258 17.3845C13.9383 17.797 14.1633 18.347 14.1633 18.9345C14.1633 19.1845 14.1633 19.422 14.1758 19.672L18.1383 19.122C18.6508 19.047 19.0508 18.647 19.1258 18.1345L19.6758 14.1595Z" fill="url(#paint7_radial_48402_399)"/>
<path d="M9.86333 7.4095L7.45083 9.822C7.31333 9.9595 7.10083 9.9595 6.96333 9.822L4.60083 7.447L7.50083 4.547L9.86333 6.922C10.0008 7.0595 10.0008 7.272 9.86333 7.4095Z" fill="url(#paint8_linear_48402_399)"/>
<path d="M9.86333 7.4095L7.45083 9.822C7.31333 9.9595 7.10083 9.9595 6.96333 9.822L4.60083 7.447L7.50083 4.547L9.86333 6.922C10.0008 7.0595 10.0008 7.272 9.86333 7.4095Z" fill="url(#paint9_linear_48402_399)"/>
<path d="M9.86333 7.4095L7.45083 9.822C7.31333 9.9595 7.10083 9.9595 6.96333 9.822L4.60083 7.447L7.50083 4.547L9.86333 6.922C10.0008 7.0595 10.0008 7.272 9.86333 7.4095Z" fill="url(#paint10_radial_48402_399)"/>
<path d="M8.61318 4.50945L4.50068 8.62195C4.30068 8.82195 3.98818 8.83445 3.78818 8.63445L2.63818 7.48445C2.45068 7.29695 2.45068 6.97195 2.65068 6.77195L6.75068 2.65945C6.95068 2.45945 7.26318 2.44695 7.46318 2.64695L8.62568 3.80945C8.81318 3.99695 8.81318 4.30945 8.61318 4.50945Z" fill="url(#paint11_linear_48402_399)"/>
<path d="M8.61318 4.50945L4.50068 8.62195C4.30068 8.82195 3.98818 8.83445 3.78818 8.63445L2.63818 7.48445C2.45068 7.29695 2.45068 6.97195 2.65068 6.77195L6.75068 2.65945C6.95068 2.45945 7.26318 2.44695 7.46318 2.64695L8.62568 3.80945C8.81318 3.99695 8.81318 4.30945 8.61318 4.50945Z" fill="url(#paint12_linear_48402_399)"/>
<path d="M15.0007 7.10945C15.4632 7.10945 15.8382 6.73449 15.8382 6.27195C15.8382 5.80941 15.4632 5.43445 15.0007 5.43445C14.5382 5.43445 14.1632 5.80941 14.1632 6.27195C14.1632 6.73449 14.5382 7.10945 15.0007 7.10945Z" fill="url(#paint13_radial_48402_399)"/>
<path d="M6.25092 16.2595C6.94127 16.2595 7.50092 15.6998 7.50092 15.0095C7.50092 14.3191 6.94127 13.7595 6.25092 13.7595C5.56056 13.7595 5.00092 14.3191 5.00092 15.0095C5.00092 15.6998 5.56056 16.2595 6.25092 16.2595Z" fill="url(#paint14_radial_48402_399)"/>
<path d="M6.25092 16.2595C6.94127 16.2595 7.50092 15.6998 7.50092 15.0095C7.50092 14.3191 6.94127 13.7595 6.25092 13.7595C5.56056 13.7595 5.00092 14.3191 5.00092 15.0095C5.00092 15.6998 5.56056 16.2595 6.25092 16.2595Z" fill="url(#paint15_radial_48402_399)"/>
<path d="M33.4133 26.2844L26.2383 33.4719C26.0883 33.6219 25.8383 33.6219 25.6883 33.4719L21.5508 29.3219C21.4008 29.1719 21.4008 28.9219 21.5508 28.7719L28.7258 21.5844C28.8758 21.4344 29.1258 21.4344 29.2758 21.5844L33.4133 25.7344C33.5633 25.8844 33.5633 26.1344 33.4133 26.2844Z" fill="url(#paint16_linear_48402_399)"/>
<path d="M11.8382 2.50945C11.5007 2.53445 11.2507 2.82195 11.2507 3.15945V6.48445C11.2507 6.79695 10.8507 6.90945 10.6757 6.65945L9.7632 5.25945C9.4632 4.80945 8.7507 5.02195 8.7507 5.55945V7.93445C8.7507 8.39695 8.3882 8.75945 7.9382 8.75945H6.3257C5.8382 8.75945 5.6007 9.34695 5.9382 9.69695L6.9632 10.7345C7.1632 10.922 7.0257 11.2595 6.7507 11.2595H3.1507C2.8132 11.2595 2.5257 11.5095 2.5007 11.847C2.4882 12.2095 2.7757 12.5094 3.1257 12.5094H9.1007L10.7882 10.822L12.5007 9.10945V3.13445C12.5007 2.77195 12.2007 2.48445 11.8382 2.50945Z" fill="#E9D2C1"/>
<path d="M11.8382 2.50945C11.5007 2.53445 11.2507 2.82195 11.2507 3.15945V6.48445C11.2507 6.79695 10.8507 6.90945 10.6757 6.65945L9.7632 5.25945C9.4632 4.80945 8.7507 5.02195 8.7507 5.55945V7.93445C8.7507 8.39695 8.3882 8.75945 7.9382 8.75945H6.3257C5.8382 8.75945 5.6007 9.34695 5.9382 9.69695L6.9632 10.7345C7.1632 10.922 7.0257 11.2595 6.7507 11.2595H3.1507C2.8132 11.2595 2.5257 11.5095 2.5007 11.847C2.4882 12.2095 2.7757 12.5094 3.1257 12.5094H9.1007L10.7882 10.822L12.5007 9.10945V3.13445C12.5007 2.77195 12.2007 2.48445 11.8382 2.50945Z" fill="url(#paint17_linear_48402_399)"/>
<path d="M11.8382 2.50945C11.5007 2.53445 11.2507 2.82195 11.2507 3.15945V6.48445C11.2507 6.79695 10.8507 6.90945 10.6757 6.65945L9.7632 5.25945C9.4632 4.80945 8.7507 5.02195 8.7507 5.55945V7.93445C8.7507 8.39695 8.3882 8.75945 7.9382 8.75945H6.3257C5.8382 8.75945 5.6007 9.34695 5.9382 9.69695L6.9632 10.7345C7.1632 10.922 7.0257 11.2595 6.7507 11.2595H3.1507C2.8132 11.2595 2.5257 11.5095 2.5007 11.847C2.4882 12.2095 2.7757 12.5094 3.1257 12.5094H9.1007L10.7882 10.822L12.5007 9.10945V3.13445C12.5007 2.77195 12.2007 2.48445 11.8382 2.50945Z" fill="url(#paint18_linear_48402_399)"/>
<path d="M11.8382 2.50945C11.5007 2.53445 11.2507 2.82195 11.2507 3.15945V6.48445C11.2507 6.79695 10.8507 6.90945 10.6757 6.65945L9.7632 5.25945C9.4632 4.80945 8.7507 5.02195 8.7507 5.55945V7.93445C8.7507 8.39695 8.3882 8.75945 7.9382 8.75945H6.3257C5.8382 8.75945 5.6007 9.34695 5.9382 9.69695L6.9632 10.7345C7.1632 10.922 7.0257 11.2595 6.7507 11.2595H3.1507C2.8132 11.2595 2.5257 11.5095 2.5007 11.847C2.4882 12.2095 2.7757 12.5094 3.1257 12.5094H9.1007L10.7882 10.822L12.5007 9.10945V3.13445C12.5007 2.77195 12.2007 2.48445 11.8382 2.50945Z" fill="url(#paint19_radial_48402_399)"/>
<path d="M11.8382 2.50945C11.5007 2.53445 11.2507 2.82195 11.2507 3.15945V6.48445C11.2507 6.79695 10.8507 6.90945 10.6757 6.65945L9.7632 5.25945C9.4632 4.80945 8.7507 5.02195 8.7507 5.55945V7.93445C8.7507 8.39695 8.3882 8.75945 7.9382 8.75945H6.3257C5.8382 8.75945 5.6007 9.34695 5.9382 9.69695L6.9632 10.7345C7.1632 10.922 7.0257 11.2595 6.7507 11.2595H3.1507C2.8132 11.2595 2.5257 11.5095 2.5007 11.847C2.4882 12.2095 2.7757 12.5094 3.1257 12.5094H9.1007L10.7882 10.822L12.5007 9.10945V3.13445C12.5007 2.77195 12.2007 2.48445 11.8382 2.50945Z" fill="url(#paint20_radial_48402_399)"/>
<path d="M11.8382 2.50945C11.5007 2.53445 11.2507 2.82195 11.2507 3.15945V6.48445C11.2507 6.79695 10.8507 6.90945 10.6757 6.65945L9.7632 5.25945C9.4632 4.80945 8.7507 5.02195 8.7507 5.55945V7.93445C8.7507 8.39695 8.3882 8.75945 7.9382 8.75945H6.3257C5.8382 8.75945 5.6007 9.34695 5.9382 9.69695L6.9632 10.7345C7.1632 10.922 7.0257 11.2595 6.7507 11.2595H3.1507C2.8132 11.2595 2.5257 11.5095 2.5007 11.847C2.4882 12.2095 2.7757 12.5094 3.1257 12.5094H9.1007L10.7882 10.822L12.5007 9.10945V3.13445C12.5007 2.77195 12.2007 2.48445 11.8382 2.50945Z" fill="url(#paint21_radial_48402_399)"/>
<path d="M11.8382 2.50945C11.5007 2.53445 11.2507 2.82195 11.2507 3.15945V6.48445C11.2507 6.79695 10.8507 6.90945 10.6757 6.65945L9.7632 5.25945C9.4632 4.80945 8.7507 5.02195 8.7507 5.55945V7.93445C8.7507 8.39695 8.3882 8.75945 7.9382 8.75945H6.3257C5.8382 8.75945 5.6007 9.34695 5.9382 9.69695L6.9632 10.7345C7.1632 10.922 7.0257 11.2595 6.7507 11.2595H3.1507C2.8132 11.2595 2.5257 11.5095 2.5007 11.847C2.4882 12.2095 2.7757 12.5094 3.1257 12.5094H9.1007L10.7882 10.822L12.5007 9.10945V3.13445C12.5007 2.77195 12.2007 2.48445 11.8382 2.50945Z" fill="url(#paint22_radial_48402_399)"/>
<path d="M11.8382 2.50945C11.5007 2.53445 11.2507 2.82195 11.2507 3.15945V6.48445C11.2507 6.79695 10.8507 6.90945 10.6757 6.65945L9.7632 5.25945C9.4632 4.80945 8.7507 5.02195 8.7507 5.55945V7.93445C8.7507 8.39695 8.3882 8.75945 7.9382 8.75945H6.3257C5.8382 8.75945 5.6007 9.34695 5.9382 9.69695L6.9632 10.7345C7.1632 10.922 7.0257 11.2595 6.7507 11.2595H3.1507C2.8132 11.2595 2.5257 11.5095 2.5007 11.847C2.4882 12.2095 2.7757 12.5094 3.1257 12.5094H9.1007L10.7882 10.822L12.5007 9.10945V3.13445C12.5007 2.77195 12.2007 2.48445 11.8382 2.50945Z" fill="url(#paint23_radial_48402_399)"/>
<path d="M11.8382 2.50945C11.5007 2.53445 11.2507 2.82195 11.2507 3.15945V6.48445C11.2507 6.79695 10.8507 6.90945 10.6757 6.65945L9.7632 5.25945C9.4632 4.80945 8.7507 5.02195 8.7507 5.55945V7.93445C8.7507 8.39695 8.3882 8.75945 7.9382 8.75945H6.3257C5.8382 8.75945 5.6007 9.34695 5.9382 9.69695L6.9632 10.7345C7.1632 10.922 7.0257 11.2595 6.7507 11.2595H3.1507C2.8132 11.2595 2.5257 11.5095 2.5007 11.847C2.4882 12.2095 2.7757 12.5094 3.1257 12.5094H9.1007L10.7882 10.822L12.5007 9.10945V3.13445C12.5007 2.77195 12.2007 2.48445 11.8382 2.50945Z" fill="url(#paint24_radial_48402_399)"/>
<path d="M11.8382 2.50945C11.5007 2.53445 11.2507 2.82195 11.2507 3.15945V6.48445C11.2507 6.79695 10.8507 6.90945 10.6757 6.65945L9.7632 5.25945C9.4632 4.80945 8.7507 5.02195 8.7507 5.55945V7.93445C8.7507 8.39695 8.3882 8.75945 7.9382 8.75945H6.3257C5.8382 8.75945 5.6007 9.34695 5.9382 9.69695L6.9632 10.7345C7.1632 10.922 7.0257 11.2595 6.7507 11.2595H3.1507C2.8132 11.2595 2.5257 11.5095 2.5007 11.847C2.4882 12.2095 2.7757 12.5094 3.1257 12.5094H9.1007L10.7882 10.822L12.5007 9.10945V3.13445C12.5007 2.77195 12.2007 2.48445 11.8382 2.50945Z" fill="url(#paint25_radial_48402_399)"/>
<path d="M11.8382 2.50945C11.5007 2.53445 11.2507 2.82195 11.2507 3.15945V6.48445C11.2507 6.79695 10.8507 6.90945 10.6757 6.65945L9.7632 5.25945C9.4632 4.80945 8.7507 5.02195 8.7507 5.55945V7.93445C8.7507 8.39695 8.3882 8.75945 7.9382 8.75945H6.3257C5.8382 8.75945 5.6007 9.34695 5.9382 9.69695L6.9632 10.7345C7.1632 10.922 7.0257 11.2595 6.7507 11.2595H3.1507C2.8132 11.2595 2.5257 11.5095 2.5007 11.847C2.4882 12.2095 2.7757 12.5094 3.1257 12.5094H9.1007L10.7882 10.822L12.5007 9.10945V3.13445C12.5007 2.77195 12.2007 2.48445 11.8382 2.50945Z" fill="url(#paint26_radial_48402_399)"/>
<path d="M12.5882 9.02187L9.00072 12.6219C8.62572 12.9969 8.63822 13.6219 9.02572 14.0094C9.41322 14.3969 10.0382 14.4219 10.4132 14.0344L14.0007 10.4469C14.3757 10.0719 14.3632 9.44687 13.9757 9.05937C13.5757 8.65937 12.9632 8.64687 12.5882 9.02187Z" fill="url(#paint27_linear_48402_399)"/>
<path d="M12.5882 9.02187L9.00072 12.6219C8.62572 12.9969 8.63822 13.6219 9.02572 14.0094C9.41322 14.3969 10.0382 14.4219 10.4132 14.0344L14.0007 10.4469C14.3757 10.0719 14.3632 9.44687 13.9757 9.05937C13.5757 8.65937 12.9632 8.64687 12.5882 9.02187Z" fill="url(#paint28_radial_48402_399)"/>
<path d="M12.5882 9.02187L9.00072 12.6219C8.62572 12.9969 8.63822 13.6219 9.02572 14.0094C9.41322 14.3969 10.0382 14.4219 10.4132 14.0344L14.0007 10.4469C14.3757 10.0719 14.3632 9.44687 13.9757 9.05937C13.5757 8.65937 12.9632 8.64687 12.5882 9.02187Z" fill="url(#paint29_radial_48402_399)"/>
<defs>
<linearGradient id="paint0_linear_48402_399" x1="32.422" y1="20.7813" x2="20.9376" y2="32.3438" gradientUnits="userSpaceOnUse">
<stop stop-color="#76B957"/>
<stop offset="0.163055" stop-color="#66AF3A"/>
<stop offset="0.498449" stop-color="#5B9636"/>
<stop offset="0.823938" stop-color="#567D3D"/>
<stop offset="1" stop-color="#6F7C6F"/>
</linearGradient>
<linearGradient id="paint1_linear_48402_399" x1="32.5001" y1="31.9141" x2="31.6407" y2="31.0547" gradientUnits="userSpaceOnUse">
<stop offset="0.386364" stop-color="#587D41"/>
<stop offset="1" stop-color="#609041" stop-opacity="0"/>
</linearGradient>
<radialGradient id="paint2_radial_48402_399" cx="0" cy="0" r="1" gradientUnits="userSpaceOnUse" gradientTransform="translate(27.1876 38.5156) rotate(-49.1276) scale(5.37248 1.74918)">
<stop stop-color="#6A7866"/>
<stop offset="1" stop-color="#609143" stop-opacity="0"/>
</radialGradient>
<radialGradient id="paint3_radial_48402_399" cx="0" cy="0" r="1" gradientUnits="userSpaceOnUse" gradientTransform="translate(32.7345 25.8594) rotate(135) scale(5.41379 15.7532)">
<stop stop-color="#7AB95A"/>
<stop offset="1" stop-color="#7EB960" stop-opacity="0"/>
</radialGradient>
<radialGradient id="paint4_radial_48402_399" cx="0" cy="0" r="1" gradientUnits="userSpaceOnUse" gradientTransform="translate(35.1173 27.8125) rotate(135) scale(4.86136 0.386698)">
<stop stop-color="#86BD68"/>
<stop offset="1" stop-color="#8DC96F" stop-opacity="0"/>
</radialGradient>
<linearGradient id="paint5_linear_48402_399" x1="11.9531" y1="16.0938" x2="16.1328" y2="11.9141" gradientUnits="userSpaceOnUse">
<stop offset="0.07922" stop-color="#C98975"/>
<stop offset="0.360475" stop-color="#D89E70"/>
<stop offset="0.693814" stop-color="#FFD38E"/>
<stop offset="0.891735" stop-color="#FFDE8F"/>
</linearGradient>
<linearGradient id="paint6_linear_48402_399" x1="18.5938" y1="18.9844" x2="14.5313" y2="15.1172" gradientUnits="userSpaceOnUse">
<stop stop-color="#CDA164"/>
<stop offset="0.530716" stop-color="#C89D5E"/>
<stop offset="0.803656" stop-color="#C89D5E" stop-opacity="0"/>
</linearGradient>
<radialGradient id="paint7_radial_48402_399" cx="0" cy="0" r="1" gradientUnits="userSpaceOnUse" gradientTransform="translate(13.3594 19.961) rotate(60.7374) scale(2.91047 3.7026)">
<stop stop-color="#B3875F"/>
<stop offset="1" stop-color="#B68860" stop-opacity="0"/>
</radialGradient>
<linearGradient id="paint8_linear_48402_399" x1="5.97659" y1="9.10159" x2="9.10159" y2="5.97659" gradientUnits="userSpaceOnUse">
<stop offset="0.00558659" stop-color="#B4855E"/>
<stop offset="0.375" stop-color="#CB9666"/>
<stop offset="0.6875" stop-color="#E9B87F"/>
<stop offset="1" stop-color="#E1B06C"/>
</linearGradient>
<linearGradient id="paint9_linear_48402_399" x1="6.25003" y1="6.01566" x2="8.32034" y2="7.73441" gradientUnits="userSpaceOnUse">
<stop offset="0.169492" stop-color="#AE7151"/>
<stop offset="0.313559" stop-color="#B27251" stop-opacity="0"/>
</linearGradient>
<radialGradient id="paint10_radial_48402_399" cx="0" cy="0" r="1" gradientUnits="userSpaceOnUse" gradientTransform="translate(9.14065 7.12894) rotate(67.8759) scale(2.1927 0.90123)">
<stop offset="0.475585" stop-color="#A97133"/>
<stop offset="1" stop-color="#AD7436" stop-opacity="0"/>
</radialGradient>
<linearGradient id="paint11_linear_48402_399" x1="1.86885" y1="6.40022" x2="6.48123" y2="1.40535" gradientUnits="userSpaceOnUse">
<stop offset="0.00558659" stop-color="#BE8766"/>
<stop offset="0.251689" stop-color="#D09568"/>
<stop offset="0.49526" stop-color="#E6B579"/>
<stop offset="0.730711" stop-color="#FFDD92"/>
<stop offset="0.896943" stop-color="#FFE090"/>
<stop offset="0.969861" stop-color="#ECD399"/>
</linearGradient>
<linearGradient id="paint12_linear_48402_399" x1="5.15966" y1="4.21523" x2="6.01904" y2="5.0746" gradientUnits="userSpaceOnUse">
<stop stop-color="#B1965E"/>
<stop offset="0.412559" stop-color="#AF935D" stop-opacity="0"/>
</linearGradient>
<radialGradient id="paint13_radial_48402_399" cx="0" cy="0" r="1" gradientUnits="userSpaceOnUse" gradientTransform="translate(15.371 5.95706) rotate(128.797) scale(1.27807)">
<stop stop-color="#FFF2D7"/>
<stop offset="0.875292" stop-color="#D3BBA1"/>
</radialGradient>
<radialGradient id="paint14_radial_48402_399" cx="0" cy="0" r="1" gradientUnits="userSpaceOnUse" gradientTransform="translate(6.80359 14.5395) rotate(128.797) scale(1.90756)">
<stop stop-color="#F3DBC9"/>
<stop offset="0.875292" stop-color="#CDB49C"/>
</radialGradient>
<radialGradient id="paint15_radial_48402_399" cx="0" cy="0" r="1" gradientUnits="userSpaceOnUse" gradientTransform="translate(6.25092 16.4648) rotate(90) scale(1.36719 3.28003)">
<stop stop-color="#DBADC9"/>
<stop offset="1" stop-color="#DDB0CA" stop-opacity="0"/>
</radialGradient>
<linearGradient id="paint16_linear_48402_399" x1="32.456" y1="24.9558" x2="24.8692" y2="32.5252" gradientUnits="userSpaceOnUse">
<stop stop-color="#FFDE96"/>
<stop offset="0.546392" stop-color="#E8AC7B"/>
<stop offset="1" stop-color="#DA8971"/>
</linearGradient>
<linearGradient id="paint17_linear_48402_399" x1="4.53115" y1="12.5094" x2="4.53115" y2="11.5625" gradientUnits="userSpaceOnUse">
<stop stop-color="#D2A9BE"/>
<stop offset="1" stop-color="#DFBBBF" stop-opacity="0"/>
</linearGradient>
<linearGradient id="paint18_linear_48402_399" x1="12.5007" y1="6.75781" x2="11.5233" y2="6.75781" gradientUnits="userSpaceOnUse">
<stop offset="0.380508" stop-color="#FFEED4"/>
<stop offset="1" stop-color="#FBE4CD" stop-opacity="0"/>
</linearGradient>
<radialGradient id="paint19_radial_48402_399" cx="0" cy="0" r="1" gradientUnits="userSpaceOnUse" gradientTransform="translate(12.1483 12.2266) rotate(-135) scale(3.12121 5.95546)">
<stop stop-color="#AEA182"/>
<stop offset="0.389381" stop-color="#C2B399"/>
<stop offset="1" stop-color="#AEA182" stop-opacity="0"/>
</radialGradient>
<radialGradient id="paint20_radial_48402_399" cx="0" cy="0" r="1" gradientUnits="userSpaceOnUse" gradientTransform="translate(11.1718 4.33594) rotate(90) scale(3.02734 0.917969)">
<stop stop-color="#AEA182"/>
<stop offset="0.763514" stop-color="#C2B399"/>
<stop offset="1" stop-color="#AEA182" stop-opacity="0"/>
</radialGradient>
<radialGradient id="paint21_radial_48402_399" cx="0" cy="0" r="1" gradientUnits="userSpaceOnUse" gradientTransform="translate(4.16005 10.4883) rotate(0.271529) scale(4.12114 1.95212)">
<stop stop-color="#AEA182"/>
<stop offset="0.672566" stop-color="#C2B399"/>
<stop offset="1" stop-color="#AEA182" stop-opacity="0"/>
</radialGradient>
<radialGradient id="paint22_radial_48402_399" cx="0" cy="0" r="1" gradientUnits="userSpaceOnUse" gradientTransform="translate(10.0976 5.91797) rotate(55.8641) scale(1.39221 0.607191)">
<stop offset="0.679001" stop-color="#FCE7CD"/>
<stop offset="1" stop-color="#FDE8CF" stop-opacity="0"/>
</radialGradient>
<radialGradient id="paint23_radial_48402_399" cx="0" cy="0" r="1" gradientUnits="userSpaceOnUse" gradientTransform="translate(11.9822 3.31055) rotate(91.2224) scale(6.85703 0.740828)">
<stop offset="0.238386" stop-color="#FCE7CD"/>
<stop offset="1" stop-color="#FDE8CF" stop-opacity="0"/>
</radialGradient>
<radialGradient id="paint24_radial_48402_399" cx="0" cy="0" r="1" gradientUnits="userSpaceOnUse" gradientTransform="translate(9.92187 6.875) rotate(61.3269) scale(2.84942 0.682768)">
<stop offset="0.238386" stop-color="#E9D2C1"/>
<stop offset="1" stop-color="#E9D2C1" stop-opacity="0"/>
</radialGradient>
<radialGradient id="paint25_radial_48402_399" cx="0" cy="0" r="1" gradientUnits="userSpaceOnUse" gradientTransform="translate(7.26563 8.92578) rotate(65.8606) scale(2.88939 1.43286)">
<stop offset="0.149498" stop-color="#E9D2C1"/>
<stop offset="1" stop-color="#E9D2C1" stop-opacity="0"/>
</radialGradient>
<radialGradient id="paint26_radial_48402_399" cx="0" cy="0" r="1" gradientUnits="userSpaceOnUse" gradientTransform="translate(3.26172 11.8555) rotate(-1.53892) scale(6.54533 0.707153)">
<stop offset="0.238386" stop-color="#DFBFC0"/>
<stop offset="1" stop-color="#DFBFC0" stop-opacity="0"/>
</radialGradient>
<linearGradient id="paint27_linear_48402_399" x1="13.9922" y1="9.85168" x2="9.34126" y2="14.1051" gradientUnits="userSpaceOnUse">
<stop stop-color="#6EA34F"/>
<stop offset="0.481598" stop-color="#538728"/>
<stop offset="1" stop-color="#577F3C"/>
</linearGradient>
<radialGradient id="paint28_radial_48402_399" cx="0" cy="0" r="1" gradientUnits="userSpaceOnUse" gradientTransform="translate(13.203 9.92187) rotate(135) scale(2.92786 0.580048)">
<stop stop-color="#85B569"/>
<stop offset="1" stop-color="#86B669" stop-opacity="0"/>
</radialGradient>
<radialGradient id="paint29_radial_48402_399" cx="0" cy="0" r="1" gradientUnits="userSpaceOnUse" gradientTransform="translate(9.21867 14.5312) rotate(-45) scale(2.76214 0.709002)">
<stop stop-color="#868A93"/>
<stop offset="1" stop-color="#7A7B86" stop-opacity="0"/>
</radialGradient>
</defs>
</svg>
