<svg width="40" height="40" viewBox="0 0 40 40" fill="none" xmlns="http://www.w3.org/2000/svg">
<path d="M19.9986 37.4972C31.6667 37.4972 37.4972 29.6628 37.4972 19.9986C37.4972 10.3344 31.6667 2.5 19.9986 2.5C8.33054 2.5 2.5 10.3344 2.5 19.9986C2.5 29.6628 8.33054 37.4972 19.9986 37.4972Z" fill="url(#paint0_radial_5803_163)"/>
<path d="M19.9986 37.4972C31.6667 37.4972 37.4972 29.6628 37.4972 19.9986C37.4972 10.3344 31.6667 2.5 19.9986 2.5C8.33054 2.5 2.5 10.3344 2.5 19.9986C2.5 29.6628 8.33054 37.4972 19.9986 37.4972Z" fill="url(#paint1_radial_5803_163)"/>
<path d="M19.9986 37.4972C31.6667 37.4972 37.4972 29.6628 37.4972 19.9986C37.4972 10.3344 31.6667 2.5 19.9986 2.5C8.33054 2.5 2.5 10.3344 2.5 19.9986C2.5 29.6628 8.33054 37.4972 19.9986 37.4972Z" fill="url(#paint2_radial_5803_163)" fill-opacity="0.6"/>
<path d="M19.9986 37.4972C31.6667 37.4972 37.4972 29.6628 37.4972 19.9986C37.4972 10.3344 31.6667 2.5 19.9986 2.5C8.33054 2.5 2.5 10.3344 2.5 19.9986C2.5 29.6628 8.33054 37.4972 19.9986 37.4972Z" fill="url(#paint3_radial_5803_163)"/>
<path d="M19.9986 37.4972C31.6667 37.4972 37.4972 29.6628 37.4972 19.9986C37.4972 10.3344 31.6667 2.5 19.9986 2.5C8.33054 2.5 2.5 10.3344 2.5 19.9986C2.5 29.6628 8.33054 37.4972 19.9986 37.4972Z" fill="url(#paint4_radial_5803_163)"/>
<path d="M19.9986 37.4972C31.6667 37.4972 37.4972 29.6628 37.4972 19.9986C37.4972 10.3344 31.6667 2.5 19.9986 2.5C8.33054 2.5 2.5 10.3344 2.5 19.9986C2.5 29.6628 8.33054 37.4972 19.9986 37.4972Z" fill="url(#paint5_radial_5803_163)"/>
<path d="M19.9986 37.4972C31.6667 37.4972 37.4972 29.6628 37.4972 19.9986C37.4972 10.3344 31.6667 2.5 19.9986 2.5C8.33054 2.5 2.5 10.3344 2.5 19.9986C2.5 29.6628 8.33054 37.4972 19.9986 37.4972Z" fill="url(#paint6_radial_5803_163)"/>
<path d="M19.9986 37.4972C31.6667 37.4972 37.4972 29.6628 37.4972 19.9986C37.4972 10.3344 31.6667 2.5 19.9986 2.5C8.33054 2.5 2.5 10.3344 2.5 19.9986C2.5 29.6628 8.33054 37.4972 19.9986 37.4972Z" fill="url(#paint7_radial_5803_163)"/>
<path d="M13.125 23.75C16.2316 23.75 18.75 21.2316 18.75 18.125C18.75 15.0184 16.2316 12.5 13.125 12.5C10.0184 12.5 7.5 15.0184 7.5 18.125C7.5 21.2316 10.0184 23.75 13.125 23.75Z" fill="white"/>
<path d="M26.875 23.75C29.9816 23.75 32.5 21.2316 32.5 18.125C32.5 15.0184 29.9816 12.5 26.875 12.5C23.7684 12.5 21.25 15.0184 21.25 18.125C21.25 21.2316 23.7684 23.75 26.875 23.75Z" fill="white"/>
<path d="M15 21.25C16.3807 21.25 17.5 20.1307 17.5 18.75C17.5 17.3693 16.3807 16.25 15 16.25C13.6193 16.25 12.5 17.3693 12.5 18.75C12.5 20.1307 13.6193 21.25 15 21.25Z" fill="url(#paint8_linear_5803_163)"/>
<path d="M25 21.25C26.3807 21.25 27.5 20.1307 27.5 18.75C27.5 17.3693 26.3807 16.25 25 16.25C23.6193 16.25 22.5 17.3693 22.5 18.75C22.5 20.1307 23.6193 21.25 25 21.25Z" fill="url(#paint9_linear_5803_163)"/>
<path fill-rule="evenodd" clip-rule="evenodd" d="M16.25 27.5C16.25 26.8096 16.8096 26.25 17.5 26.25H22.5C23.1904 26.25 23.75 26.8096 23.75 27.5C23.75 28.1904 23.1904 28.75 22.5 28.75H17.5C16.8096 28.75 16.25 28.1904 16.25 27.5Z" fill="url(#paint10_linear_5803_163)"/>
<path fill-rule="evenodd" clip-rule="evenodd" d="M11.25 23.75C11.25 23.0596 11.8096 22.5 12.5 22.5C13.408 22.5 14.635 22.7277 15.6686 23.4975C16.7633 24.3129 17.5 25.6345 17.5 27.5C17.5 29.3655 16.7633 30.6871 15.6686 31.5025C14.635 32.2723 13.408 32.5 12.5 32.5C11.8096 32.5 11.25 31.9404 11.25 31.25C11.25 30.5596 11.8096 30 12.5 30C13.0504 30 13.6984 29.8527 14.1752 29.4975C14.5909 29.1879 15 28.6345 15 27.5C15 26.3655 14.5909 25.8121 14.1752 25.5025C13.6984 25.1473 13.0504 25 12.5 25C11.8096 25 11.25 24.4404 11.25 23.75Z" fill="url(#paint11_radial_5803_163)"/>
<path fill-rule="evenodd" clip-rule="evenodd" d="M28.75 23.75C28.75 23.0596 28.1904 22.5 27.5 22.5C26.592 22.5 25.365 22.7277 24.3314 23.4975C23.2367 24.3129 22.5 25.6345 22.5 27.5C22.5 29.3655 23.2367 30.6871 24.3314 31.5025C25.365 32.2723 26.592 32.5 27.5 32.5C28.1904 32.5 28.75 31.9404 28.75 31.25C28.75 30.5596 28.1904 30 27.5 30C26.9496 30 26.3016 29.8527 25.8248 29.4975C25.4091 29.1879 25 28.6345 25 27.5C25 26.3655 25.4091 25.8121 25.8248 25.5025C26.3016 25.1473 26.9496 25 27.5 25C28.1904 25 28.75 24.4404 28.75 23.75Z" fill="url(#paint12_radial_5803_163)"/>
<path fill-rule="evenodd" clip-rule="evenodd" d="M11.401 8.57887C12.021 7.89768 12.2726 7.10556 12.3627 6.70397C12.4571 6.28296 12.875 6.01824 13.296 6.1127C13.717 6.20716 13.9817 6.62503 13.8873 7.04603C13.7651 7.59039 13.4279 8.67328 12.5566 9.6306C11.6614 10.6141 10.254 11.4062 8.12495 11.4062C7.69348 11.4062 7.3437 11.0565 7.3437 10.625C7.3437 10.1935 7.69348 9.84375 8.12495 9.84375C9.8184 9.84375 10.8049 9.23389 11.401 8.57887Z" fill="url(#paint13_linear_5803_163)"/>
<path fill-rule="evenodd" clip-rule="evenodd" d="M11.401 8.57887C12.021 7.89768 12.2726 7.10556 12.3627 6.70397C12.4571 6.28296 12.875 6.01824 13.296 6.1127C13.717 6.20716 13.9817 6.62503 13.8873 7.04603C13.7651 7.59039 13.4279 8.67328 12.5566 9.6306C11.6614 10.6141 10.254 11.4062 8.12495 11.4062C7.69348 11.4062 7.3437 11.0565 7.3437 10.625C7.3437 10.1935 7.69348 9.84375 8.12495 9.84375C9.8184 9.84375 10.8049 9.23389 11.401 8.57887Z" fill="url(#paint14_radial_5803_163)"/>
<path fill-rule="evenodd" clip-rule="evenodd" d="M28.5736 8.55572C27.9586 7.86663 27.7207 7.0748 27.6373 6.70371C27.5427 6.28274 27.1247 6.01816 26.7038 6.11276C26.2828 6.20736 26.0182 6.62532 26.1128 7.04629C26.2247 7.54434 26.5434 8.62751 27.4079 9.59613C28.2969 10.5922 29.7106 11.4062 31.875 11.4062C32.3065 11.4062 32.6563 11.0565 32.6563 10.625C32.6563 10.1935 32.3065 9.84375 31.875 9.84375C30.1527 9.84375 29.1641 9.21734 28.5736 8.55572Z" fill="url(#paint15_radial_5803_163)"/>
<defs>
<radialGradient id="paint0_radial_5803_163" cx="0" cy="0" r="1" gradientUnits="userSpaceOnUse" gradientTransform="translate(23.75 8.75) rotate(100.923) scale(36.2823)">
<stop stop-color="#72FFA9"/>
<stop offset="0.493469" stop-color="#00D26A"/>
<stop offset="1" stop-color="#8D65C5"/>
</radialGradient>
<radialGradient id="paint1_radial_5803_163" cx="0" cy="0" r="1" gradientUnits="userSpaceOnUse" gradientTransform="translate(20 15.625) rotate(90) scale(24.375)">
<stop offset="0.81119" stop-color="#A7A1F6" stop-opacity="0"/>
<stop offset="0.972655" stop-color="#A092FF"/>
</radialGradient>
<radialGradient id="paint2_radial_5803_163" cx="0" cy="0" r="1" gradientUnits="userSpaceOnUse" gradientTransform="translate(22.5 17.5) rotate(135) scale(51.2652)">
<stop offset="0.314853" stop-opacity="0"/>
<stop offset="1"/>
</radialGradient>
<radialGradient id="paint3_radial_5803_163" cx="0" cy="0" r="1" gradientUnits="userSpaceOnUse" gradientTransform="translate(33.8983 14.0562) rotate(80.0297) scale(20.7867)">
<stop stop-color="#71FFA9"/>
<stop offset="1" stop-color="#6EFFA6" stop-opacity="0"/>
</radialGradient>
<radialGradient id="paint4_radial_5803_163" cx="0" cy="0" r="1" gradientUnits="userSpaceOnUse" gradientTransform="translate(10.1767 15.2437) rotate(50.3431) scale(8.87962)">
<stop stop-color="#35BE6B"/>
<stop offset="1" stop-color="#35BE6B" stop-opacity="0"/>
</radialGradient>
<radialGradient id="paint5_radial_5803_163" cx="0" cy="0" r="1" gradientUnits="userSpaceOnUse" gradientTransform="translate(28.2129 10.3351) rotate(127.694) scale(1.84209 4.18046)">
<stop stop-color="#2AB962"/>
<stop offset="1" stop-color="#2AB663" stop-opacity="0"/>
</radialGradient>
<radialGradient id="paint6_radial_5803_163" cx="0" cy="0" r="1" gradientUnits="userSpaceOnUse" gradientTransform="translate(12.1556 19.3814) rotate(43.0564) scale(7.31429)">
<stop offset="0.426875" stop-color="#298C6B"/>
<stop offset="1" stop-color="#359877" stop-opacity="0"/>
</radialGradient>
<radialGradient id="paint7_radial_5803_163" cx="0" cy="0" r="1" gradientUnits="userSpaceOnUse" gradientTransform="translate(26.3678 18.6618) rotate(125.256) scale(6.38902)">
<stop offset="0.426875" stop-color="#298C6B"/>
<stop offset="1" stop-color="#359877" stop-opacity="0"/>
</radialGradient>
<linearGradient id="paint8_linear_5803_163" x1="25.7692" y1="16.25" x2="24.9081" y2="21.2877" gradientUnits="userSpaceOnUse">
<stop stop-color="#553B3E"/>
<stop offset="1" stop-color="#3D2432"/>
</linearGradient>
<linearGradient id="paint9_linear_5803_163" x1="25.7692" y1="16.25" x2="24.9081" y2="21.2877" gradientUnits="userSpaceOnUse">
<stop stop-color="#553B3E"/>
<stop offset="1" stop-color="#3D2432"/>
</linearGradient>
<linearGradient id="paint10_linear_5803_163" x1="20" y1="26.25" x2="20" y2="28.75" gradientUnits="userSpaceOnUse">
<stop stop-color="#4E3F45"/>
<stop offset="0.212208" stop-color="#5F4D56"/>
<stop offset="0.95703" stop-color="#51275A"/>
</linearGradient>
<radialGradient id="paint11_radial_5803_163" cx="0" cy="0" r="1" gradientUnits="userSpaceOnUse" gradientTransform="translate(12.5 27.5) scale(5)">
<stop offset="0.509095" stop-color="#3E3537"/>
<stop offset="0.707019" stop-color="#523A4F"/>
<stop offset="1" stop-color="#6A5763"/>
</radialGradient>
<radialGradient id="paint12_radial_5803_163" cx="0" cy="0" r="1" gradientUnits="userSpaceOnUse" gradientTransform="translate(27.5 27.5) rotate(-180) scale(5)">
<stop offset="0.509095" stop-color="#3E3537"/>
<stop offset="0.707019" stop-color="#523A4F"/>
<stop offset="1" stop-color="#6A5763"/>
</radialGradient>
<linearGradient id="paint13_linear_5803_163" x1="11.875" y1="6.24997" x2="11.875" y2="8.12497" gradientUnits="userSpaceOnUse">
<stop offset="0.0299084" stop-color="#524049"/>
<stop offset="1" stop-color="#4A2C42"/>
</linearGradient>
<radialGradient id="paint14_radial_5803_163" cx="0" cy="0" r="1" gradientUnits="userSpaceOnUse" gradientTransform="translate(8.74995 6.24997) rotate(54.4623) scale(5.37645)">
<stop offset="0.541667" stop-color="#493032"/>
<stop offset="0.806723" stop-color="#5E445A"/>
<stop offset="0.955326" stop-color="#4A2C42"/>
</radialGradient>
<radialGradient id="paint15_radial_5803_163" cx="0" cy="0" r="1" gradientUnits="userSpaceOnUse" gradientTransform="translate(31.25 6.25) rotate(125.538) scale(5.37645)">
<stop stop-color="#C2B4B5"/>
<stop offset="0.887405" stop-color="#462B45"/>
<stop offset="1" stop-color="#4A2C42"/>
</radialGradient>
</defs>
</svg>
