<svg width="40" height="40" viewBox="0 0 40 40" fill="none" xmlns="http://www.w3.org/2000/svg">
<path d="M23.7129 7.16261C22.6146 6.78523 20.3844 5.47828 20.0661 2.26583C20.0151 1.78899 19.595 1.42508 19.0985 1.41253C15.3807 1.31214 13.2284 5.25241 12.2481 7.20999C11.8379 7.73878 11.2424 7.72449 10.8223 7.23509C10.1984 6.50727 10.4408 4.53714 9.01478 5.17712C4.94058 7.00922 2.52151 11.8028 2.52151 17.3744C2.52151 26.9239 16.3849 34.8797 19.084 36.2977C19.3641 36.4483 20.66 36.5766 21.1934 36.2977C23.9053 34.8797 37.5215 26.9239 37.5215 17.3744C37.5215 10.8115 32.2887 6.48217 26.4448 4.21087C25.8082 3.9599 25.1079 4.41165 25.1079 5.08928L25.0117 6.24464C24.9629 6.72316 24.3836 7.39306 23.7129 7.16261Z" fill="url(#paint0_linear_5803_172)"/>
<path d="M23.7129 7.16261C22.6146 6.78523 20.3844 5.47828 20.0661 2.26583C20.0151 1.78899 19.595 1.42508 19.0985 1.41253C15.3807 1.31214 13.2284 5.25241 12.2481 7.20999C11.8379 7.73878 11.2424 7.72449 10.8223 7.23509C10.1984 6.50727 10.4408 4.53714 9.01478 5.17712C4.94058 7.00922 2.52151 11.8028 2.52151 17.3744C2.52151 26.9239 16.3849 34.8797 19.084 36.2977C19.3641 36.4483 20.66 36.5766 21.1934 36.2977C23.9053 34.8797 37.5215 26.9239 37.5215 17.3744C37.5215 10.8115 32.2887 6.48217 26.4448 4.21087C25.8082 3.9599 25.1079 4.41165 25.1079 5.08928L25.0117 6.24464C24.9629 6.72316 24.3836 7.39306 23.7129 7.16261Z" fill="url(#paint1_linear_5803_172)"/>
<path d="M23.7129 7.16261C22.6146 6.78523 20.3844 5.47828 20.0661 2.26583C20.0151 1.78899 19.595 1.42508 19.0985 1.41253C15.3807 1.31214 13.2284 5.25241 12.2481 7.20999C11.8379 7.73878 11.2424 7.72449 10.8223 7.23509C10.1984 6.50727 10.4408 4.53714 9.01478 5.17712C4.94058 7.00922 2.52151 11.8028 2.52151 17.3744C2.52151 26.9239 16.3849 34.8797 19.084 36.2977C19.3641 36.4483 20.66 36.5766 21.1934 36.2977C23.9053 34.8797 37.5215 26.9239 37.5215 17.3744C37.5215 10.8115 32.2887 6.48217 26.4448 4.21087C25.8082 3.9599 25.1079 4.41165 25.1079 5.08928L25.0117 6.24464C24.9629 6.72316 24.3836 7.39306 23.7129 7.16261Z" fill="url(#paint2_linear_5803_172)"/>
<path opacity="0.5" d="M29.7264 14.4967C29.5359 10.6858 27.3457 6.72673 26.1817 5.30442C26.0173 5.10362 25.7328 5.22408 25.7 5.48148C25.3661 8.10703 23.1141 11.4427 21.5623 12.778L29.7264 14.4967Z" fill="url(#paint3_linear_5803_172)"/>
<path opacity="0.9" d="M19.3569 15.9561C13.7895 10.8244 15.7872 4.77009 18.3615 2.40825C18.5326 2.25131 18.7986 2.35421 18.8478 2.58107C20.0635 8.18645 23.1653 9.65959 27.4864 10.672C23.7468 11.5662 20.2376 14.8722 19.3569 15.9561Z" fill="url(#paint4_radial_5803_172)"/>
<path opacity="0.5" d="M11.5233 17.9732C7.63243 14.9633 7.63921 8.22816 9.40446 6.09778C9.55258 5.91903 9.81712 6.01501 9.8729 6.24035C10.5123 8.8239 12.1722 10.3052 15.3905 11.0592C12.5155 11.7467 12.2004 17.1399 11.5233 17.9732Z" fill="url(#paint5_radial_5803_172)"/>
<path opacity="0.5" d="M30.1562 27.9343L27.9355 6.49369C27.9135 6.28062 28.1051 6.10984 28.3086 6.17669C31.2391 7.13921 36.2724 11.5136 36.0937 17.2311C35.9062 23.2311 32.0833 26.2936 30.1562 27.9343Z" fill="url(#paint6_linear_5803_172)"/>
<path d="M19.1288 36.1882C19.7954 36.5685 20.6045 36.5469 21.2686 36.162C25.1604 33.9065 31.7521 28.8591 34.3607 22.3269C38.238 13.7143 29.134 6.8392 22.842 11.784C22.2169 12.2753 21.4385 12.8342 20.8752 13.3695C20.5722 13.6573 20.043 13.6867 19.7312 13.4085C18.9833 12.7415 17.875 11.9158 17.1536 11.4277C11.7895 7.79856 2.02939 12.5824 6.19272 22.7923C7.70076 27.3238 14.8234 33.7315 19.1288 36.1882Z" fill="url(#paint7_radial_5803_172)"/>
<path d="M19.1288 36.1882C19.7954 36.5685 20.6045 36.5469 21.2686 36.162C25.1604 33.9065 31.7521 28.8591 34.3607 22.3269C38.238 13.7143 29.134 6.8392 22.842 11.784C22.2169 12.2753 21.4385 12.8342 20.8752 13.3695C20.5722 13.6573 20.043 13.6867 19.7312 13.4085C18.9833 12.7415 17.875 11.9158 17.1536 11.4277C11.7895 7.79856 2.02939 12.5824 6.19272 22.7923C7.70076 27.3238 14.8234 33.7315 19.1288 36.1882Z" fill="url(#paint8_radial_5803_172)"/>
<path d="M19.1288 36.1882C19.7954 36.5685 20.6045 36.5469 21.2686 36.162C25.1604 33.9065 31.7521 28.8591 34.3607 22.3269C38.238 13.7143 29.134 6.8392 22.842 11.784C22.2169 12.2753 21.4385 12.8342 20.8752 13.3695C20.5722 13.6573 20.043 13.6867 19.7312 13.4085C18.9833 12.7415 17.875 11.9158 17.1536 11.4277C11.7895 7.79856 2.02939 12.5824 6.19272 22.7923C7.70076 27.3238 14.8234 33.7315 19.1288 36.1882Z" fill="url(#paint9_radial_5803_172)"/>
<path d="M19.1288 36.1882C19.7954 36.5685 20.6045 36.5469 21.2686 36.162C25.1604 33.9065 31.7521 28.8591 34.3607 22.3269C38.238 13.7143 29.134 6.8392 22.842 11.784C22.2169 12.2753 21.4385 12.8342 20.8752 13.3695C20.5722 13.6573 20.043 13.6867 19.7312 13.4085C18.9833 12.7415 17.875 11.9158 17.1536 11.4277C11.7895 7.79856 2.02939 12.5824 6.19272 22.7923C7.70076 27.3238 14.8234 33.7315 19.1288 36.1882Z" fill="url(#paint10_radial_5803_172)"/>
<path d="M19.1288 36.1882C19.7954 36.5685 20.6045 36.5469 21.2686 36.162C25.1604 33.9065 31.7521 28.8591 34.3607 22.3269C38.238 13.7143 29.134 6.8392 22.842 11.784C22.2169 12.2753 21.4385 12.8342 20.8752 13.3695C20.5722 13.6573 20.043 13.6867 19.7312 13.4085C18.9833 12.7415 17.875 11.9158 17.1536 11.4277C11.7895 7.79856 2.02939 12.5824 6.19272 22.7923C7.70076 27.3238 14.8234 33.7315 19.1288 36.1882Z" fill="url(#paint11_linear_5803_172)"/>
<path d="M19.1288 36.1882C19.7954 36.5685 20.6045 36.5469 21.2686 36.162C25.1604 33.9065 31.7521 28.8591 34.3607 22.3269C38.238 13.7143 29.134 6.8392 22.842 11.784C22.2169 12.2753 21.4385 12.8342 20.8752 13.3695C20.5722 13.6573 20.043 13.6867 19.7312 13.4085C18.9833 12.7415 17.875 11.9158 17.1536 11.4277C11.7895 7.79856 2.02939 12.5824 6.19272 22.7923C7.70076 27.3238 14.8234 33.7315 19.1288 36.1882Z" fill="url(#paint12_linear_5803_172)"/>
<path d="M19.1288 36.1882C19.7954 36.5685 20.6045 36.5469 21.2686 36.162C25.1604 33.9065 31.7521 28.8591 34.3607 22.3269C38.238 13.7143 29.134 6.8392 22.842 11.784C22.2169 12.2753 21.4385 12.8342 20.8752 13.3695C20.5722 13.6573 20.043 13.6867 19.7312 13.4085C18.9833 12.7415 17.875 11.9158 17.1536 11.4277C11.7895 7.79856 2.02939 12.5824 6.19272 22.7923C7.70076 27.3238 14.8234 33.7315 19.1288 36.1882Z" fill="url(#paint13_radial_5803_172)"/>
<path d="M19.1288 36.1882C19.7954 36.5685 20.6045 36.5469 21.2686 36.162C25.1604 33.9065 31.7521 28.8591 34.3607 22.3269C38.238 13.7143 29.134 6.8392 22.842 11.784C22.2169 12.2753 21.4385 12.8342 20.8752 13.3695C20.5722 13.6573 20.043 13.6867 19.7312 13.4085C18.9833 12.7415 17.875 11.9158 17.1536 11.4277C11.7895 7.79856 2.02939 12.5824 6.19272 22.7923C7.70076 27.3238 14.8234 33.7315 19.1288 36.1882Z" fill="url(#paint14_radial_5803_172)"/>
<path d="M19.1288 36.1882C19.7954 36.5685 20.6045 36.5469 21.2686 36.162C25.1604 33.9065 31.7521 28.8591 34.3607 22.3269C38.238 13.7143 29.134 6.8392 22.842 11.784C22.2169 12.2753 21.4385 12.8342 20.8752 13.3695C20.5722 13.6573 20.043 13.6867 19.7312 13.4085C18.9833 12.7415 17.875 11.9158 17.1536 11.4277C11.7895 7.79856 2.02939 12.5824 6.19272 22.7923C7.70076 27.3238 14.8234 33.7315 19.1288 36.1882Z" fill="url(#paint15_radial_5803_172)"/>
<path d="M19.1288 36.1882C19.7954 36.5685 20.6045 36.5469 21.2686 36.162C25.1604 33.9065 31.7521 28.8591 34.3607 22.3269C38.238 13.7143 29.134 6.8392 22.842 11.784C22.2169 12.2753 21.4385 12.8342 20.8752 13.3695C20.5722 13.6573 20.043 13.6867 19.7312 13.4085C18.9833 12.7415 17.875 11.9158 17.1536 11.4277C11.7895 7.79856 2.02939 12.5824 6.19272 22.7923C7.70076 27.3238 14.8234 33.7315 19.1288 36.1882Z" fill="url(#paint16_radial_5803_172)"/>
<path d="M19.1288 36.1882C19.7954 36.5685 20.6045 36.5469 21.2686 36.162C25.1604 33.9065 31.7521 28.8591 34.3607 22.3269C38.238 13.7143 29.134 6.8392 22.842 11.784C22.2169 12.2753 21.4385 12.8342 20.8752 13.3695C20.5722 13.6573 20.043 13.6867 19.7312 13.4085C18.9833 12.7415 17.875 11.9158 17.1536 11.4277C11.7895 7.79856 2.02939 12.5824 6.19272 22.7923C7.70076 27.3238 14.8234 33.7315 19.1288 36.1882Z" fill="url(#paint17_radial_5803_172)"/>
<path d="M19.1288 36.1882C19.7954 36.5685 20.6045 36.5469 21.2686 36.162C25.1604 33.9065 31.7521 28.8591 34.3607 22.3269C38.238 13.7143 29.134 6.8392 22.842 11.784C22.2169 12.2753 21.4385 12.8342 20.8752 13.3695C20.5722 13.6573 20.043 13.6867 19.7312 13.4085C18.9833 12.7415 17.875 11.9158 17.1536 11.4277C11.7895 7.79856 2.02939 12.5824 6.19272 22.7923C7.70076 27.3238 14.8234 33.7315 19.1288 36.1882Z" fill="url(#paint18_radial_5803_172)"/>
<path d="M19.1288 36.1882C19.7954 36.5685 20.6045 36.5469 21.2686 36.162C25.1604 33.9065 31.7521 28.8591 34.3607 22.3269C38.238 13.7143 29.134 6.8392 22.842 11.784C22.2169 12.2753 21.4385 12.8342 20.8752 13.3695C20.5722 13.6573 20.043 13.6867 19.7312 13.4085C18.9833 12.7415 17.875 11.9158 17.1536 11.4277C11.7895 7.79856 2.02939 12.5824 6.19272 22.7923C7.70076 27.3238 14.8234 33.7315 19.1288 36.1882Z" fill="url(#paint19_radial_5803_172)"/>
<path d="M19.1288 36.1882C19.7954 36.5685 20.6045 36.5469 21.2686 36.162C25.1604 33.9065 31.7521 28.8591 34.3607 22.3269C38.238 13.7143 29.134 6.8392 22.842 11.784C22.2169 12.2753 21.4385 12.8342 20.8752 13.3695C20.5722 13.6573 20.043 13.6867 19.7312 13.4085C18.9833 12.7415 17.875 11.9158 17.1536 11.4277C11.7895 7.79856 2.02939 12.5824 6.19272 22.7923C7.70076 27.3238 14.8234 33.7315 19.1288 36.1882Z" fill="url(#paint20_radial_5803_172)"/>
<defs>
<linearGradient id="paint0_linear_5803_172" x1="25.2343" y1="18.9364" x2="13.5155" y2="-0.112794" gradientUnits="userSpaceOnUse">
<stop stop-color="#F8EC1D"/>
<stop offset="0.721254" stop-color="#F89C20"/>
<stop offset="1" stop-color="#F5891F"/>
</linearGradient>
<linearGradient id="paint1_linear_5803_172" x1="12.4999" y1="20.8247" x2="5.2343" y2="29.5747" gradientUnits="userSpaceOnUse">
<stop stop-color="#F89C20" stop-opacity="0"/>
<stop offset="1" stop-color="#F5891F"/>
</linearGradient>
<linearGradient id="paint2_linear_5803_172" x1="29.1405" y1="17.0747" x2="25.703" y2="36.4622" gradientUnits="userSpaceOnUse">
<stop stop-color="#F89C20" stop-opacity="0"/>
<stop offset="1" stop-color="#F5891F"/>
</linearGradient>
<linearGradient id="paint3_linear_5803_172" x1="26.6405" y1="5.16071" x2="26.6405" y2="12.7388" gradientUnits="userSpaceOnUse">
<stop stop-color="#F89C20" stop-opacity="0"/>
<stop offset="0.8989" stop-color="#F89C20"/>
</linearGradient>
<radialGradient id="paint4_radial_5803_172" cx="0" cy="0" r="1" gradientUnits="userSpaceOnUse" gradientTransform="translate(26.5235 8.55483) rotate(-179.228) scale(11.6026 9.67754)">
<stop offset="0.426965" stop-color="#FFD56C" stop-opacity="0"/>
<stop offset="0.783213" stop-color="#FFD56C" stop-opacity="0.660196"/>
<stop offset="0.864823" stop-color="#FFCB49"/>
<stop offset="0.932725" stop-color="#F89D20"/>
</radialGradient>
<radialGradient id="paint5_radial_5803_172" cx="0" cy="0" r="1" gradientUnits="userSpaceOnUse" gradientTransform="translate(14.8039 11.4494) rotate(-178.884) scale(7.06986 8.52943)">
<stop offset="0.426965" stop-color="#FFD56C" stop-opacity="0"/>
<stop offset="0.783213" stop-color="#FFD56C" stop-opacity="0.660196"/>
<stop offset="0.864823" stop-color="#FFCB49"/>
<stop offset="0.932725" stop-color="#F89D20"/>
</radialGradient>
<linearGradient id="paint6_linear_5803_172" x1="36.0983" y1="16.9968" x2="22.6366" y2="9.81861" gradientUnits="userSpaceOnUse">
<stop stop-color="#FFE39E"/>
<stop offset="0.880208" stop-color="#FFE39E" stop-opacity="0"/>
</linearGradient>
<radialGradient id="paint7_radial_5803_172" cx="0" cy="0" r="1" gradientUnits="userSpaceOnUse" gradientTransform="translate(19.1121 1.35034) rotate(88.5481) scale(34.7767 35.8117)">
<stop stop-color="#F12E52"/>
<stop offset="0.67675" stop-color="#FF3B79"/>
<stop offset="1" stop-color="#FF4EC6"/>
</radialGradient>
<radialGradient id="paint8_radial_5803_172" cx="0" cy="0" r="1" gradientUnits="userSpaceOnUse" gradientTransform="translate(27.7089 16.9991) rotate(142.986) scale(28.3324 53.0693)">
<stop offset="0.483055" stop-color="#B91D43" stop-opacity="0"/>
<stop offset="0.833898" stop-color="#B91D43"/>
</radialGradient>
<radialGradient id="paint9_radial_5803_172" cx="0" cy="0" r="1" gradientUnits="userSpaceOnUse" gradientTransform="translate(24.4376 23.9406) rotate(-158.663) scale(24.5759 34.7415)">
<stop offset="0.40984" stop-color="#B91D43" stop-opacity="0"/>
<stop offset="0.833898" stop-color="#B91D43"/>
</radialGradient>
<radialGradient id="paint10_radial_5803_172" cx="0" cy="0" r="1" gradientUnits="userSpaceOnUse" gradientTransform="translate(19.6447 19.6485) rotate(90) scale(21.3892 21.3892)">
<stop offset="0.671096" stop-color="#FF7AF2" stop-opacity="0"/>
<stop offset="0.933555" stop-color="#FFBCE6"/>
</radialGradient>
<linearGradient id="paint11_linear_5803_172" x1="22.0054" y1="22.1522" x2="30.6612" y2="32.4534" gradientUnits="userSpaceOnUse">
<stop offset="0.694491" stop-color="#FF7AF2" stop-opacity="0"/>
<stop offset="0.933555" stop-color="#FFBCE6"/>
</linearGradient>
<linearGradient id="paint12_linear_5803_172" x1="20.9324" y1="22.5814" x2="10.7743" y2="34.0271" gradientUnits="userSpaceOnUse">
<stop offset="0.694491" stop-color="#FF7AF2" stop-opacity="0"/>
<stop offset="0.933555" stop-color="#FFBCE6"/>
</linearGradient>
<radialGradient id="paint13_radial_5803_172" cx="0" cy="0" r="1" gradientUnits="userSpaceOnUse" gradientTransform="translate(22.6555 18.6548) rotate(164.618) scale(18.5971 19.6401)">
<stop offset="0.802083" stop-color="#FF73A6" stop-opacity="0"/>
<stop offset="1" stop-color="#FF93BA" stop-opacity="0.6"/>
</radialGradient>
<radialGradient id="paint14_radial_5803_172" cx="0" cy="0" r="1" gradientUnits="userSpaceOnUse" gradientTransform="translate(20.1668 14.1814) rotate(-90) scale(12.8115 15.2647)">
<stop stop-color="#FC0D1A" stop-opacity="0.6"/>
<stop offset="0.802083" stop-color="#FC1020" stop-opacity="0"/>
</radialGradient>
<radialGradient id="paint15_radial_5803_172" cx="0" cy="0" r="1" gradientUnits="userSpaceOnUse" gradientTransform="translate(31.7402 14.7536) rotate(129.227) scale(11.0245 7.27815)">
<stop stop-color="#FF93BA" stop-opacity="0.5"/>
<stop offset="1" stop-color="#FF73A6" stop-opacity="0"/>
</radialGradient>
<radialGradient id="paint16_radial_5803_172" cx="0" cy="0" r="1" gradientUnits="userSpaceOnUse" gradientTransform="translate(17.351 17.8033) rotate(45.5907) scale(3.56755 2.35522)">
<stop stop-color="#FF93BA" stop-opacity="0.4"/>
<stop offset="1" stop-color="#FF73A6" stop-opacity="0"/>
</radialGradient>
<radialGradient id="paint17_radial_5803_172" cx="0" cy="0" r="1" gradientUnits="userSpaceOnUse" gradientTransform="translate(27.7531 11.9782) rotate(176.279) scale(3.20539 2.08278)">
<stop stop-color="#FF93BA" stop-opacity="0.3"/>
<stop offset="1" stop-color="#FF73A6" stop-opacity="0"/>
</radialGradient>
<radialGradient id="paint18_radial_5803_172" cx="0" cy="0" r="1" gradientUnits="userSpaceOnUse" gradientTransform="translate(12.306 12.0562) rotate(1.07082) scale(2.78304 1.42388)">
<stop stop-color="#FF93BA" stop-opacity="0.3"/>
<stop offset="1" stop-color="#FF73A6" stop-opacity="0"/>
</radialGradient>
<radialGradient id="paint19_radial_5803_172" cx="0" cy="0" r="1" gradientUnits="userSpaceOnUse" gradientTransform="translate(22.188 18.9476) rotate(-90) scale(6.26725 2.29125)">
<stop stop-color="#FA1E3A" stop-opacity="0.7"/>
<stop offset="1" stop-color="#FA1E3A" stop-opacity="0"/>
</radialGradient>
<radialGradient id="paint20_radial_5803_172" cx="0" cy="0" r="1" gradientUnits="userSpaceOnUse" gradientTransform="translate(28.6417 16.9915) rotate(-151.991) scale(6.87309)">
<stop stop-color="#FA1E3A" stop-opacity="0.7"/>
<stop offset="1" stop-color="#FA1E3A" stop-opacity="0"/>
</radialGradient>
</defs>
</svg>
