<svg width="40" height="40" viewBox="0 0 40 40" fill="none" xmlns="http://www.w3.org/2000/svg">
<g clip-path="url(#clip0_5804_197)">
<path d="M24.5272 36.9013C35.7977 33.8814 39.4019 24.8049 36.9006 15.47C34.3993 6.13511 26.7397 0.0767217 15.4692 3.09664C4.19877 6.11655 0.594585 15.1931 3.09587 24.528C5.59715 33.8629 13.2567 39.9213 24.5272 36.9013Z" fill="url(#paint0_radial_5804_197)"/>
<path d="M24.5272 36.9013C35.7977 33.8814 39.4019 24.8049 36.9006 15.47C34.3993 6.13511 26.7397 0.0767217 15.4692 3.09664C4.19877 6.11655 0.594585 15.1931 3.09587 24.528C5.59715 33.8629 13.2567 39.9213 24.5272 36.9013Z" fill="url(#paint1_radial_5804_197)"/>
<path d="M24.5272 36.9013C35.7977 33.8814 39.4019 24.8049 36.9006 15.47C34.3993 6.13511 26.7397 0.0767217 15.4692 3.09664C4.19877 6.11655 0.594585 15.1931 3.09587 24.528C5.59715 33.8629 13.2567 39.9213 24.5272 36.9013Z" fill="url(#paint2_radial_5804_197)"/>
<path d="M24.5272 36.9013C35.7977 33.8814 39.4019 24.8049 36.9006 15.47C34.3993 6.13511 26.7397 0.0767217 15.4692 3.09664C4.19877 6.11655 0.594585 15.1931 3.09587 24.528C5.59715 33.8629 13.2567 39.9213 24.5272 36.9013Z" fill="url(#paint3_radial_5804_197)" fill-opacity="0.6"/>
<path d="M24.5272 36.9013C35.7977 33.8814 39.4019 24.8049 36.9006 15.47C34.3993 6.13511 26.7397 0.0767217 15.4692 3.09664C4.19877 6.11655 0.594585 15.1931 3.09587 24.528C5.59715 33.8629 13.2567 39.9213 24.5272 36.9013Z" fill="url(#paint4_radial_5804_197)"/>
<path d="M24.5272 36.9013C35.7977 33.8814 39.4019 24.8049 36.9006 15.47C34.3993 6.13511 26.7397 0.0767217 15.4692 3.09664C4.19877 6.11655 0.594585 15.1931 3.09587 24.528C5.59715 33.8629 13.2567 39.9213 24.5272 36.9013Z" fill="url(#paint5_radial_5804_197)"/>
<path d="M24.5272 36.9013C35.7977 33.8814 39.4019 24.8049 36.9006 15.47C34.3993 6.13511 26.7397 0.0767217 15.4692 3.09664C4.19877 6.11655 0.594585 15.1931 3.09587 24.528C5.59715 33.8629 13.2567 39.9213 24.5272 36.9013Z" fill="url(#paint6_radial_5804_197)"/>
<path d="M24.5272 36.9013C35.7977 33.8814 39.4019 24.8049 36.9006 15.47C34.3993 6.13511 26.7397 0.0767217 15.4692 3.09664C4.19877 6.11655 0.594585 15.1931 3.09587 24.528C5.59715 33.8629 13.2567 39.9213 24.5272 36.9013Z" fill="url(#paint7_radial_5804_197)"/>
<path d="M24.5272 36.9013C35.7977 33.8814 39.4019 24.8049 36.9006 15.47C34.3993 6.13511 26.7397 0.0767217 15.4692 3.09664C4.19877 6.11655 0.594585 15.1931 3.09587 24.528C5.59715 33.8629 13.2567 39.9213 24.5272 36.9013Z" fill="url(#paint8_radial_5804_197)"/>
<path d="M24.5272 36.9013C35.7977 33.8814 39.4019 24.8049 36.9006 15.47C34.3993 6.13511 26.7397 0.0767217 15.4692 3.09664C4.19877 6.11655 0.594585 15.1931 3.09587 24.528C5.59715 33.8629 13.2567 39.9213 24.5272 36.9013Z" fill="url(#paint9_radial_5804_197)"/>
<path d="M23.2353 32.074C11.1613 35.3092 7.92603 23.2352 7.92603 23.2352L32.0742 16.7647C32.0742 16.7647 35.3094 28.8388 23.2353 32.074Z" fill="url(#paint10_radial_5804_197)"/>
<path d="M29.5408 19.3847L11.4297 24.2375C10.4294 24.5055 9.40132 23.9119 9.1333 22.9117L30.8666 17.0883C31.1346 18.0885 30.5411 19.1166 29.5408 19.3847Z" fill="url(#paint11_linear_5804_197)"/>
<path d="M24.2245 35.6913C29.2956 34.3325 29.5301 27.2169 29.3473 25.907C28.922 22.9879 24.2271 23.552 21.1899 24.3658C18.1526 25.1796 13.7383 27.0679 14.8585 29.7893C15.3551 31.015 19.1534 37.0501 24.2245 35.6913Z" fill="url(#paint12_radial_5804_197)"/>
<path d="M24.2245 35.6913C29.2956 34.3325 29.5301 27.2169 29.3473 25.907C28.922 22.9879 24.2271 23.552 21.1899 24.3658C18.1526 25.1796 13.7383 27.0679 14.8585 29.7893C15.3551 31.015 19.1534 37.0501 24.2245 35.6913Z" fill="url(#paint13_radial_5804_197)"/>
<path d="M24.2245 35.6913C29.2956 34.3325 29.5301 27.2169 29.3473 25.907C28.922 22.9879 24.2271 23.552 21.1899 24.3658C18.1526 25.1796 13.7383 27.0679 14.8585 29.7893C15.3551 31.015 19.1534 37.0501 24.2245 35.6913Z" fill="url(#paint14_radial_5804_197)"/>
<path d="M13.0355 20.572C16.0362 19.768 17.817 16.6836 17.013 13.6828C16.2089 10.6821 13.1245 8.90129 10.1238 9.70534C7.12302 10.5094 5.34224 13.5938 6.14629 16.5945C6.95033 19.5953 10.0347 21.376 13.0355 20.572Z" fill="white"/>
<path d="M26.317 17.0132C29.3177 16.2092 31.0985 13.1248 30.2944 10.1241C29.4904 7.1233 26.406 5.34253 23.4052 6.14657C20.4045 6.95062 18.6237 10.035 19.4278 13.0358C20.2318 16.0365 23.3162 17.8173 26.317 17.0132Z" fill="white"/>
<path d="M12.1086 19.5263C13.4422 19.169 14.2337 17.7981 13.8763 16.4645C13.519 15.1308 12.1481 14.3393 10.8145 14.6967C9.48081 15.0541 8.68935 16.4249 9.04671 17.7586C9.40406 19.0922 10.7749 19.8837 12.1086 19.5263Z" fill="url(#paint15_linear_5804_197)"/>
<path d="M25.6266 12.0218C26.9603 11.6645 27.7518 10.2936 27.3944 8.95995C27.037 7.62629 25.6662 6.83483 24.3325 7.19219C22.9989 7.54954 22.2074 8.92038 22.5648 10.254C22.9221 11.5877 24.293 12.3792 25.6266 12.0218Z" fill="url(#paint16_linear_5804_197)"/>
</g>
<defs>
<radialGradient id="paint0_radial_5804_197" cx="0" cy="0" r="1" gradientUnits="userSpaceOnUse" gradientTransform="translate(29.2056 8.47466) rotate(117.839) scale(46.8792)">
<stop stop-color="#FFF478"/>
<stop offset="0.474827" stop-color="#FFB02E"/>
<stop offset="1" stop-color="#F70A8D"/>
</radialGradient>
<radialGradient id="paint1_radial_5804_197" cx="0" cy="0" r="1" gradientUnits="userSpaceOnUse" gradientTransform="translate(29.2056 8.47466) rotate(116.878) scale(48.6859)">
<stop stop-color="#FFF478"/>
<stop offset="0.474827" stop-color="#FFB02E"/>
<stop offset="1" stop-color="#F70A8D"/>
</radialGradient>
<radialGradient id="paint2_radial_5804_197" cx="0" cy="0" r="1" gradientUnits="userSpaceOnUse" gradientTransform="translate(18.8676 15.7741) rotate(86.3099) scale(22.3082 28.5726)">
<stop offset="0.787821" stop-color="#F59639" stop-opacity="0"/>
<stop offset="0.972509" stop-color="#FF7DCE"/>
</radialGradient>
<radialGradient id="paint3_radial_5804_197" cx="0" cy="0" r="1" gradientUnits="userSpaceOnUse" gradientTransform="translate(21.7677 16.9381) rotate(120) scale(51.2652)">
<stop offset="0.314853" stop-opacity="0"/>
<stop offset="1"/>
</radialGradient>
<radialGradient id="paint4_radial_5804_197" cx="0" cy="0" r="1" gradientUnits="userSpaceOnUse" gradientTransform="translate(20.3235 21.2074) rotate(62.692) scale(35.1837)">
<stop offset="0.507903" stop-color="#7D6133" stop-opacity="0"/>
<stop offset="1" stop-color="#715B32"/>
</radialGradient>
<radialGradient id="paint5_radial_5804_197" cx="0" cy="0" r="1" gradientUnits="userSpaceOnUse" gradientTransform="translate(20.7654 20.4419) rotate(40.7131) scale(16.6419 12.0629)">
<stop stop-color="#FFB849"/>
<stop offset="1" stop-color="#FFB847" stop-opacity="0"/>
</radialGradient>
<radialGradient id="paint6_radial_5804_197" cx="0" cy="0" r="1" gradientUnits="userSpaceOnUse" gradientTransform="translate(26.0803 20.9589) rotate(-5.13419) scale(14.5908)">
<stop stop-color="#FFA64B"/>
<stop offset="0.900412" stop-color="#FFAE46" stop-opacity="0"/>
</radialGradient>
<radialGradient id="paint7_radial_5804_197" cx="0" cy="0" r="1" gradientUnits="userSpaceOnUse" gradientTransform="translate(21.4875 18.3073) rotate(28.9708) scale(73.8162)">
<stop offset="0.185425" stop-opacity="0"/>
<stop offset="1" stop-opacity="0.4"/>
</radialGradient>
<radialGradient id="paint8_radial_5804_197" cx="0" cy="0" r="1" gradientUnits="userSpaceOnUse" gradientTransform="translate(10.3522 16.3827) rotate(88.5271) scale(6.36156)">
<stop stop-color="#392108"/>
<stop offset="1" stop-color="#C87928" stop-opacity="0"/>
</radialGradient>
<radialGradient id="paint9_radial_5804_197" cx="0" cy="0" r="1" gradientUnits="userSpaceOnUse" gradientTransform="translate(23.6912 11.6585) rotate(97.9696) scale(7.01515)">
<stop stop-color="#392108"/>
<stop offset="0.880181" stop-color="#C87928" stop-opacity="0"/>
</radialGradient>
<radialGradient id="paint10_radial_5804_197" cx="0" cy="0" r="1" gradientUnits="userSpaceOnUse" gradientTransform="translate(23.9543 34.7571) rotate(-105) scale(15.2778 30.5556)">
<stop stop-color="#F70A8D"/>
<stop offset="1" stop-color="#89029C"/>
</radialGradient>
<linearGradient id="paint11_linear_5804_197" x1="20" y1="20" x2="20.4853" y2="21.8111" gradientUnits="userSpaceOnUse">
<stop stop-color="#ECCDFF"/>
<stop offset="1" stop-color="white"/>
</linearGradient>
<radialGradient id="paint12_radial_5804_197" cx="0" cy="0" r="1" gradientUnits="userSpaceOnUse" gradientTransform="translate(25.1329 36.742) rotate(-114.866) scale(14.5908 25.365)">
<stop stop-color="#FF1C4A"/>
<stop offset="0.765733" stop-color="#FF2B8F"/>
<stop offset="0.864496" stop-color="#BB0773"/>
<stop offset="0.886239" stop-color="#9F0762"/>
</radialGradient>
<radialGradient id="paint13_radial_5804_197" cx="0" cy="0" r="1" gradientUnits="userSpaceOnUse" gradientTransform="translate(26.8563 31.4491) rotate(-147.995) scale(1.43418 2.06636)">
<stop stop-color="white" stop-opacity="0.38"/>
<stop offset="0.484749" stop-color="white" stop-opacity="0.2"/>
<stop offset="0.78955" stop-color="white" stop-opacity="0"/>
</radialGradient>
<radialGradient id="paint14_radial_5804_197" cx="0" cy="0" r="1" gradientUnits="userSpaceOnUse" gradientTransform="translate(27.5157 30.0802) rotate(-163.867) scale(1.39649 2.01206)">
<stop stop-color="white" stop-opacity="0.38"/>
<stop offset="0.58723" stop-color="white" stop-opacity="0.2"/>
<stop offset="1" stop-color="white" stop-opacity="0"/>
</radialGradient>
<linearGradient id="paint15_linear_5804_197" x1="21.2167" y1="11.9094" x2="21.6888" y2="16.9984" gradientUnits="userSpaceOnUse">
<stop stop-color="#553B3E"/>
<stop offset="1" stop-color="#3D2432"/>
</linearGradient>
<linearGradient id="paint16_linear_5804_197" x1="25.0756" y1="6.99309" x2="25.5476" y2="12.082" gradientUnits="userSpaceOnUse">
<stop stop-color="#553B3E"/>
<stop offset="1" stop-color="#3D2432"/>
</linearGradient>
<clipPath id="clip0_5804_197">
<rect width="40" height="40" fill="white"/>
</clipPath>
</defs>
</svg>
