<svg width="40" height="40" viewBox="0 0 40 40" fill="none" xmlns="http://www.w3.org/2000/svg">
<g clip-path="url(#clip0_5803_179)">
<path d="M19.9986 37.4972C31.6667 37.4972 37.4972 29.6628 37.4972 19.9986C37.4972 10.3344 31.6667 2.5 19.9986 2.5C8.33054 2.5 2.5 10.3344 2.5 19.9986C2.5 29.6628 8.33054 37.4972 19.9986 37.4972Z" fill="url(#paint0_radial_5803_179)"/>
<path d="M19.9986 37.4972C31.6667 37.4972 37.4972 29.6628 37.4972 19.9986C37.4972 10.3344 31.6667 2.5 19.9986 2.5C8.33054 2.5 2.5 10.3344 2.5 19.9986C2.5 29.6628 8.33054 37.4972 19.9986 37.4972Z" fill="url(#paint1_radial_5803_179)"/>
<path d="M19.9986 37.4972C31.6667 37.4972 37.4972 29.6628 37.4972 19.9986C37.4972 10.3344 31.6667 2.5 19.9986 2.5C8.33054 2.5 2.5 10.3344 2.5 19.9986C2.5 29.6628 8.33054 37.4972 19.9986 37.4972Z" fill="url(#paint2_radial_5803_179)" fill-opacity="0.6"/>
<path d="M19.9986 37.4972C31.6667 37.4972 37.4972 29.6628 37.4972 19.9986C37.4972 10.3344 31.6667 2.5 19.9986 2.5C8.33054 2.5 2.5 10.3344 2.5 19.9986C2.5 29.6628 8.33054 37.4972 19.9986 37.4972Z" fill="url(#paint3_radial_5803_179)"/>
<path d="M19.9986 37.4972C31.6667 37.4972 37.4972 29.6628 37.4972 19.9986C37.4972 10.3344 31.6667 2.5 19.9986 2.5C8.33054 2.5 2.5 10.3344 2.5 19.9986C2.5 29.6628 8.33054 37.4972 19.9986 37.4972Z" fill="url(#paint4_radial_5803_179)"/>
<path d="M19.9986 37.4972C31.6667 37.4972 37.4972 29.6628 37.4972 19.9986C37.4972 10.3344 31.6667 2.5 19.9986 2.5C8.33054 2.5 2.5 10.3344 2.5 19.9986C2.5 29.6628 8.33054 37.4972 19.9986 37.4972Z" fill="url(#paint5_radial_5803_179)"/>
<path d="M19.9986 37.4972C31.6667 37.4972 37.4972 29.6628 37.4972 19.9986C37.4972 10.3344 31.6667 2.5 19.9986 2.5C8.33054 2.5 2.5 10.3344 2.5 19.9986C2.5 29.6628 8.33054 37.4972 19.9986 37.4972Z" fill="url(#paint6_radial_5803_179)"/>
<path d="M19.9986 37.4972C31.6667 37.4972 37.4972 29.6628 37.4972 19.9986C37.4972 10.3344 31.6667 2.5 19.9986 2.5C8.33054 2.5 2.5 10.3344 2.5 19.9986C2.5 29.6628 8.33054 37.4972 19.9986 37.4972Z" fill="url(#paint7_radial_5803_179)"/>
<path d="M19.9986 37.4972C31.6667 37.4972 37.4972 29.6628 37.4972 19.9986C37.4972 10.3344 31.6667 2.5 19.9986 2.5C8.33054 2.5 2.5 10.3344 2.5 19.9986C2.5 29.6628 8.33054 37.4972 19.9986 37.4972Z" fill="url(#paint8_radial_5803_179)"/>
<path d="M19.9986 37.4972C31.6667 37.4972 37.4972 29.6628 37.4972 19.9986C37.4972 10.3344 31.6667 2.5 19.9986 2.5C8.33054 2.5 2.5 10.3344 2.5 19.9986C2.5 29.6628 8.33054 37.4972 19.9986 37.4972Z" fill="url(#paint9_radial_5803_179)"/>
<path d="M19.9986 37.4972C31.6667 37.4972 37.4972 29.6628 37.4972 19.9986C37.4972 10.3344 31.6667 2.5 19.9986 2.5C8.33054 2.5 2.5 10.3344 2.5 19.9986C2.5 29.6628 8.33054 37.4972 19.9986 37.4972Z" fill="url(#paint10_radial_5803_179)"/>
<path d="M19.9986 37.4972C31.6667 37.4972 37.4972 29.6628 37.4972 19.9986C37.4972 10.3344 31.6667 2.5 19.9986 2.5C8.33054 2.5 2.5 10.3344 2.5 19.9986C2.5 29.6628 8.33054 37.4972 19.9986 37.4972Z" fill="url(#paint11_radial_5803_179)"/>
<path d="M19.9986 37.4972C31.6667 37.4972 37.4972 29.6628 37.4972 19.9986C37.4972 10.3344 31.6667 2.5 19.9986 2.5C8.33054 2.5 2.5 10.3344 2.5 19.9986C2.5 29.6628 8.33054 37.4972 19.9986 37.4972Z" fill="url(#paint12_radial_5803_179)"/>
<path d="M19.9986 37.4972C31.6667 37.4972 37.4972 29.6628 37.4972 19.9986C37.4972 10.3344 31.6667 2.5 19.9986 2.5C8.33054 2.5 2.5 10.3344 2.5 19.9986C2.5 29.6628 8.33054 37.4972 19.9986 37.4972Z" fill="url(#paint13_radial_5803_179)"/>
<path fill-rule="evenodd" clip-rule="evenodd" d="M17.9803 28.001C17.0124 29.1302 15.5939 30.625 13.125 30.625C10.6646 30.625 8.61514 29.1329 7.86612 28.3839C7.37796 27.8957 7.37796 27.1043 7.86612 26.6161C8.35427 26.128 9.14573 26.128 9.63388 26.6161C10.1349 27.1171 11.5854 28.125 13.125 28.125C14.4061 28.125 15.1751 27.4323 16.0822 26.374C16.1594 26.2839 16.2404 26.1876 16.3247 26.0874C16.6918 25.6509 17.1217 25.1398 17.5753 24.7429C18.175 24.2182 18.9644 23.75 20 23.75C21.6025 23.75 22.6723 24.5376 23.4548 25.1136C23.5134 25.1568 23.5704 25.1987 23.6258 25.2391C24.4294 25.8235 25.0961 26.25 26.25 26.25C28.3313 26.25 29.3997 25.2095 29.5849 24.9316C29.9679 24.3572 30.744 24.202 31.3184 24.5849C31.8928 24.9679 32.048 25.744 31.6651 26.3184C31.017 27.2905 29.1687 28.75 26.25 28.75C24.2789 28.75 23.0706 27.9265 22.1554 27.2609L22.1138 27.2307C21.2191 26.5798 20.7657 26.25 20 26.25C19.7856 26.25 19.5594 26.3287 19.2216 26.6243C18.9255 26.8833 18.6551 27.2037 18.3021 27.6219C18.2023 27.7401 18.0958 27.8662 17.9803 28.001Z" fill="#402A32"/>
<path fill-rule="evenodd" clip-rule="evenodd" d="M17.9803 28.001C17.0124 29.1302 15.5939 30.625 13.125 30.625C10.6646 30.625 8.61514 29.1329 7.86612 28.3839C7.37796 27.8957 7.37796 27.1043 7.86612 26.6161C8.35427 26.128 9.14573 26.128 9.63388 26.6161C10.1349 27.1171 11.5854 28.125 13.125 28.125C14.4061 28.125 15.1751 27.4323 16.0822 26.374C16.1594 26.2839 16.2404 26.1876 16.3247 26.0874C16.6918 25.6509 17.1217 25.1398 17.5753 24.7429C18.175 24.2182 18.9644 23.75 20 23.75C21.6025 23.75 22.6723 24.5376 23.4548 25.1136C23.5134 25.1568 23.5704 25.1987 23.6258 25.2391C24.4294 25.8235 25.0961 26.25 26.25 26.25C28.3313 26.25 29.3997 25.2095 29.5849 24.9316C29.9679 24.3572 30.744 24.202 31.3184 24.5849C31.8928 24.9679 32.048 25.744 31.6651 26.3184C31.017 27.2905 29.1687 28.75 26.25 28.75C24.2789 28.75 23.0706 27.9265 22.1554 27.2609L22.1138 27.2307C21.2191 26.5798 20.7657 26.25 20 26.25C19.7856 26.25 19.5594 26.3287 19.2216 26.6243C18.9255 26.8833 18.6551 27.2037 18.3021 27.6219C18.2023 27.7401 18.0958 27.8662 17.9803 28.001Z" fill="url(#paint14_radial_5803_179)"/>
<path fill-rule="evenodd" clip-rule="evenodd" d="M17.9803 28.001C17.0124 29.1302 15.5939 30.625 13.125 30.625C10.6646 30.625 8.61514 29.1329 7.86612 28.3839C7.37796 27.8957 7.37796 27.1043 7.86612 26.6161C8.35427 26.128 9.14573 26.128 9.63388 26.6161C10.1349 27.1171 11.5854 28.125 13.125 28.125C14.4061 28.125 15.1751 27.4323 16.0822 26.374C16.1594 26.2839 16.2404 26.1876 16.3247 26.0874C16.6918 25.6509 17.1217 25.1398 17.5753 24.7429C18.175 24.2182 18.9644 23.75 20 23.75C21.6025 23.75 22.6723 24.5376 23.4548 25.1136C23.5134 25.1568 23.5704 25.1987 23.6258 25.2391C24.4294 25.8235 25.0961 26.25 26.25 26.25C28.3313 26.25 29.3997 25.2095 29.5849 24.9316C29.9679 24.3572 30.744 24.202 31.3184 24.5849C31.8928 24.9679 32.048 25.744 31.6651 26.3184C31.017 27.2905 29.1687 28.75 26.25 28.75C24.2789 28.75 23.0706 27.9265 22.1554 27.2609L22.1138 27.2307C21.2191 26.5798 20.7657 26.25 20 26.25C19.7856 26.25 19.5594 26.3287 19.2216 26.6243C18.9255 26.8833 18.6551 27.2037 18.3021 27.6219C18.2023 27.7401 18.0958 27.8662 17.9803 28.001Z" fill="url(#paint15_radial_5803_179)"/>
<path fill-rule="evenodd" clip-rule="evenodd" d="M17.9803 28.001C17.0124 29.1302 15.5939 30.625 13.125 30.625C10.6646 30.625 8.61514 29.1329 7.86612 28.3839C7.37796 27.8957 7.37796 27.1043 7.86612 26.6161C8.35427 26.128 9.14573 26.128 9.63388 26.6161C10.1349 27.1171 11.5854 28.125 13.125 28.125C14.4061 28.125 15.1751 27.4323 16.0822 26.374C16.1594 26.2839 16.2404 26.1876 16.3247 26.0874C16.6918 25.6509 17.1217 25.1398 17.5753 24.7429C18.175 24.2182 18.9644 23.75 20 23.75C21.6025 23.75 22.6723 24.5376 23.4548 25.1136C23.5134 25.1568 23.5704 25.1987 23.6258 25.2391C24.4294 25.8235 25.0961 26.25 26.25 26.25C28.3313 26.25 29.3997 25.2095 29.5849 24.9316C29.9679 24.3572 30.744 24.202 31.3184 24.5849C31.8928 24.9679 32.048 25.744 31.6651 26.3184C31.017 27.2905 29.1687 28.75 26.25 28.75C24.2789 28.75 23.0706 27.9265 22.1554 27.2609L22.1138 27.2307C21.2191 26.5798 20.7657 26.25 20 26.25C19.7856 26.25 19.5594 26.3287 19.2216 26.6243C18.9255 26.8833 18.6551 27.2037 18.3021 27.6219C18.2023 27.7401 18.0958 27.8662 17.9803 28.001Z" fill="url(#paint16_radial_5803_179)"/>
<path fill-rule="evenodd" clip-rule="evenodd" d="M17.9803 28.001C17.0124 29.1302 15.5939 30.625 13.125 30.625C10.6646 30.625 8.61514 29.1329 7.86612 28.3839C7.37796 27.8957 7.37796 27.1043 7.86612 26.6161C8.35427 26.128 9.14573 26.128 9.63388 26.6161C10.1349 27.1171 11.5854 28.125 13.125 28.125C14.4061 28.125 15.1751 27.4323 16.0822 26.374C16.1594 26.2839 16.2404 26.1876 16.3247 26.0874C16.6918 25.6509 17.1217 25.1398 17.5753 24.7429C18.175 24.2182 18.9644 23.75 20 23.75C21.6025 23.75 22.6723 24.5376 23.4548 25.1136C23.5134 25.1568 23.5704 25.1987 23.6258 25.2391C24.4294 25.8235 25.0961 26.25 26.25 26.25C28.3313 26.25 29.3997 25.2095 29.5849 24.9316C29.9679 24.3572 30.744 24.202 31.3184 24.5849C31.8928 24.9679 32.048 25.744 31.6651 26.3184C31.017 27.2905 29.1687 28.75 26.25 28.75C24.2789 28.75 23.0706 27.9265 22.1554 27.2609L22.1138 27.2307C21.2191 26.5798 20.7657 26.25 20 26.25C19.7856 26.25 19.5594 26.3287 19.2216 26.6243C18.9255 26.8833 18.6551 27.2037 18.3021 27.6219C18.2023 27.7401 18.0958 27.8662 17.9803 28.001Z" fill="url(#paint17_radial_5803_179)"/>
<path fill-rule="evenodd" clip-rule="evenodd" d="M17.9803 28.001C17.0124 29.1302 15.5939 30.625 13.125 30.625C10.6646 30.625 8.61514 29.1329 7.86612 28.3839C7.37796 27.8957 7.37796 27.1043 7.86612 26.6161C8.35427 26.128 9.14573 26.128 9.63388 26.6161C10.1349 27.1171 11.5854 28.125 13.125 28.125C14.4061 28.125 15.1751 27.4323 16.0822 26.374C16.1594 26.2839 16.2404 26.1876 16.3247 26.0874C16.6918 25.6509 17.1217 25.1398 17.5753 24.7429C18.175 24.2182 18.9644 23.75 20 23.75C21.6025 23.75 22.6723 24.5376 23.4548 25.1136C23.5134 25.1568 23.5704 25.1987 23.6258 25.2391C24.4294 25.8235 25.0961 26.25 26.25 26.25C28.3313 26.25 29.3997 25.2095 29.5849 24.9316C29.9679 24.3572 30.744 24.202 31.3184 24.5849C31.8928 24.9679 32.048 25.744 31.6651 26.3184C31.017 27.2905 29.1687 28.75 26.25 28.75C24.2789 28.75 23.0706 27.9265 22.1554 27.2609L22.1138 27.2307C21.2191 26.5798 20.7657 26.25 20 26.25C19.7856 26.25 19.5594 26.3287 19.2216 26.6243C18.9255 26.8833 18.6551 27.2037 18.3021 27.6219C18.2023 27.7401 18.0958 27.8662 17.9803 28.001Z" fill="url(#paint18_radial_5803_179)"/>
<path fill-rule="evenodd" clip-rule="evenodd" d="M17.9803 28.001C17.0124 29.1302 15.5939 30.625 13.125 30.625C10.6646 30.625 8.61514 29.1329 7.86612 28.3839C7.37796 27.8957 7.37796 27.1043 7.86612 26.6161C8.35427 26.128 9.14573 26.128 9.63388 26.6161C10.1349 27.1171 11.5854 28.125 13.125 28.125C14.4061 28.125 15.1751 27.4323 16.0822 26.374C16.1594 26.2839 16.2404 26.1876 16.3247 26.0874C16.6918 25.6509 17.1217 25.1398 17.5753 24.7429C18.175 24.2182 18.9644 23.75 20 23.75C21.6025 23.75 22.6723 24.5376 23.4548 25.1136C23.5134 25.1568 23.5704 25.1987 23.6258 25.2391C24.4294 25.8235 25.0961 26.25 26.25 26.25C28.3313 26.25 29.3997 25.2095 29.5849 24.9316C29.9679 24.3572 30.744 24.202 31.3184 24.5849C31.8928 24.9679 32.048 25.744 31.6651 26.3184C31.017 27.2905 29.1687 28.75 26.25 28.75C24.2789 28.75 23.0706 27.9265 22.1554 27.2609L22.1138 27.2307C21.2191 26.5798 20.7657 26.25 20 26.25C19.7856 26.25 19.5594 26.3287 19.2216 26.6243C18.9255 26.8833 18.6551 27.2037 18.3021 27.6219C18.2023 27.7401 18.0958 27.8662 17.9803 28.001Z" fill="url(#paint19_radial_5803_179)"/>
<path fill-rule="evenodd" clip-rule="evenodd" d="M17.9803 28.001C17.0124 29.1302 15.5939 30.625 13.125 30.625C10.6646 30.625 8.61514 29.1329 7.86612 28.3839C7.37796 27.8957 7.37796 27.1043 7.86612 26.6161C8.35427 26.128 9.14573 26.128 9.63388 26.6161C10.1349 27.1171 11.5854 28.125 13.125 28.125C14.4061 28.125 15.1751 27.4323 16.0822 26.374C16.1594 26.2839 16.2404 26.1876 16.3247 26.0874C16.6918 25.6509 17.1217 25.1398 17.5753 24.7429C18.175 24.2182 18.9644 23.75 20 23.75C21.6025 23.75 22.6723 24.5376 23.4548 25.1136C23.5134 25.1568 23.5704 25.1987 23.6258 25.2391C24.4294 25.8235 25.0961 26.25 26.25 26.25C28.3313 26.25 29.3997 25.2095 29.5849 24.9316C29.9679 24.3572 30.744 24.202 31.3184 24.5849C31.8928 24.9679 32.048 25.744 31.6651 26.3184C31.017 27.2905 29.1687 28.75 26.25 28.75C24.2789 28.75 23.0706 27.9265 22.1554 27.2609L22.1138 27.2307C21.2191 26.5798 20.7657 26.25 20 26.25C19.7856 26.25 19.5594 26.3287 19.2216 26.6243C18.9255 26.8833 18.6551 27.2037 18.3021 27.6219C18.2023 27.7401 18.0958 27.8662 17.9803 28.001Z" fill="url(#paint20_radial_5803_179)"/>
<path fill-rule="evenodd" clip-rule="evenodd" d="M13.7504 21.25C15.8215 21.25 17.5004 19.571 17.5004 17.5C17.5004 17.2421 17.4744 16.9903 17.4248 16.7471L10.4871 19.3487C11.1316 20.4841 12.3516 21.25 13.7504 21.25Z" fill="url(#paint21_linear_5803_179)"/>
<path fill-rule="evenodd" clip-rule="evenodd" d="M26.25 21.2499C28.3211 21.2499 30 19.571 30 17.4999C30 16.8503 29.8348 16.2393 29.5442 15.7066L25.236 14.5099C24.8957 14.4153 24.5422 14.3646 24.1949 14.3627C23.1741 15.0327 22.5 16.1876 22.5 17.4999C22.5 19.571 24.1789 21.2499 26.25 21.2499Z" fill="url(#paint22_linear_5803_179)"/>
<path d="M24.4527 8.74531C26.731 8.46049 28.0997 9.30542 28.9159 10.1897C29.3335 10.642 29.6141 11.1147 29.79 11.4753C29.8776 11.6548 29.938 11.8042 29.9758 11.9058C29.9946 11.9566 30.0077 11.9952 30.0156 12.0195L30.0236 12.0448L30.0248 12.0488C30.1204 12.3795 30.4656 12.5707 30.7969 12.4761C31.1288 12.3813 31.321 12.0353 31.2261 11.7034L31.2257 11.7019L31.2252 11.7001L31.2237 11.6951L31.2193 11.6804C31.2157 11.6685 31.2107 11.6525 31.2043 11.6328C31.1914 11.5933 31.1728 11.5386 31.1477 11.4709C31.0975 11.3358 31.0212 11.1482 30.9135 10.9273C30.6988 10.4871 30.3544 9.90509 29.8344 9.34181C28.7756 8.19477 27.0194 7.1647 24.2977 7.50496C23.9551 7.54778 23.7122 7.86015 23.755 8.20266C23.7978 8.54518 24.1102 8.78812 24.4527 8.74531Z" fill="url(#paint23_radial_5803_179)"/>
<path d="M24.4527 8.74531C26.731 8.46049 28.0997 9.30542 28.9159 10.1897C29.3335 10.642 29.6141 11.1147 29.79 11.4753C29.8776 11.6548 29.938 11.8042 29.9758 11.9058C29.9946 11.9566 30.0077 11.9952 30.0156 12.0195L30.0236 12.0448L30.0248 12.0488C30.1204 12.3795 30.4656 12.5707 30.7969 12.4761C31.1288 12.3813 31.321 12.0353 31.2261 11.7034L31.2257 11.7019L31.2252 11.7001L31.2237 11.6951L31.2193 11.6804C31.2157 11.6685 31.2107 11.6525 31.2043 11.6328C31.1914 11.5933 31.1728 11.5386 31.1477 11.4709C31.0975 11.3358 31.0212 11.1482 30.9135 10.9273C30.6988 10.4871 30.3544 9.90509 29.8344 9.34181C28.7756 8.19477 27.0194 7.1647 24.2977 7.50496C23.9551 7.54778 23.7122 7.86015 23.755 8.20266C23.7978 8.54518 24.1102 8.78812 24.4527 8.74531Z" fill="url(#paint24_radial_5803_179)"/>
<path d="M16.2315 12.0266C16.3152 11.6917 16.1116 11.3524 15.7767 11.2687C15.4419 11.185 15.1025 11.3886 15.0188 11.7234C14.5682 13.5258 13.5638 14.4094 12.5189 14.8256C11.4375 15.2564 10.263 15.2028 9.52673 15.0187C9.19186 14.935 8.85253 15.1386 8.76881 15.4734C8.68509 15.8083 8.88869 16.1476 9.22356 16.2314C10.1539 16.464 11.6045 16.5353 12.9814 15.9869C14.3948 15.4239 15.6821 14.2242 16.2315 12.0266Z" fill="url(#paint25_radial_5803_179)"/>
<path d="M31.6223 16.4783C31.813 16.7233 31.8804 17.038 31.8582 17.3477C31.6086 20.8326 28.6168 23.0985 25.625 22.5002C22.6998 21.9151 20.8699 19.1395 21.1605 16.2239C21.1996 15.831 21.3907 15.4643 21.7136 15.2371C24.3472 13.3838 29.9927 14.3832 31.6223 16.4783Z" fill="white"/>
<path d="M8.75 18.7502C8.95833 20.2085 10.2145 22.5002 13.75 22.5002C19.375 22.5002 18.75 15.0002 18.75 15.0002L8.75 18.7502Z" fill="white"/>
<path fill-rule="evenodd" clip-rule="evenodd" d="M26.2499 18.7501C27.6307 18.7501 28.7499 17.6308 28.7499 16.2501C28.7499 15.6101 28.5094 15.0262 28.1138 14.584C27.0146 14.3151 25.815 14.2031 24.6944 14.2929C24.1189 14.7509 23.7499 15.4575 23.7499 16.2501C23.7499 17.6308 24.8692 18.7501 26.2499 18.7501ZM13.7499 20.0001C15.1307 20.0001 16.2499 18.8808 16.2499 17.5001C16.2499 16.9808 16.0916 16.4984 15.8205 16.0987L11.2684 17.8057C11.4191 19.0423 12.4727 20.0001 13.7499 20.0001Z" fill="#402A32"/>
</g>
<defs>
<radialGradient id="paint0_radial_5803_179" cx="0" cy="0" r="1" gradientUnits="userSpaceOnUse" gradientTransform="translate(31.875 11.25) rotate(131.878) scale(48.6859)">
<stop stop-color="#FFF478"/>
<stop offset="0.474827" stop-color="#FFB02E"/>
<stop offset="1" stop-color="#F70A8D"/>
</radialGradient>
<radialGradient id="paint1_radial_5803_179" cx="0" cy="0" r="1" gradientUnits="userSpaceOnUse" gradientTransform="translate(20 15.625) rotate(101.31) scale(22.3082 28.5726)">
<stop offset="0.787821" stop-color="#F59639" stop-opacity="0"/>
<stop offset="0.972509" stop-color="#FF7DCE"/>
</radialGradient>
<radialGradient id="paint2_radial_5803_179" cx="0" cy="0" r="1" gradientUnits="userSpaceOnUse" gradientTransform="translate(22.5 17.5) rotate(135) scale(51.2652)">
<stop offset="0.314853" stop-opacity="0"/>
<stop offset="1"/>
</radialGradient>
<radialGradient id="paint3_radial_5803_179" cx="0" cy="0" r="1" gradientUnits="userSpaceOnUse" gradientTransform="translate(19.3313 21.25) rotate(76.6324) scale(35.3323)">
<stop offset="0.507903" stop-color="#D1671A" stop-opacity="0"/>
<stop offset="0.784408" stop-color="#B2753D"/>
</radialGradient>
<radialGradient id="paint4_radial_5803_179" cx="0" cy="0" r="1" gradientUnits="userSpaceOnUse" gradientTransform="translate(20.625 20.625) rotate(55.7131) scale(16.6419 12.0629)">
<stop stop-color="#FFB849"/>
<stop offset="1" stop-color="#FFB847" stop-opacity="0"/>
</radialGradient>
<radialGradient id="paint5_radial_5803_179" cx="0" cy="0" r="1" gradientUnits="userSpaceOnUse" gradientTransform="translate(25.625 22.5) rotate(9.86581) scale(14.5908)">
<stop stop-color="#FFA64B"/>
<stop offset="0.900412" stop-color="#FFAE46" stop-opacity="0"/>
</radialGradient>
<radialGradient id="paint6_radial_5803_179" cx="0" cy="0" r="1" gradientUnits="userSpaceOnUse" gradientTransform="translate(21.875 18.75) rotate(43.9708) scale(73.8162)">
<stop offset="0.185425" stop-opacity="0"/>
<stop offset="1" stop-opacity="0.4"/>
</radialGradient>
<radialGradient id="paint7_radial_5803_179" cx="0" cy="0" r="1" gradientUnits="userSpaceOnUse" gradientTransform="translate(11.5048 17.8713) rotate(-54.8581) scale(8.75213)">
<stop offset="0.13474" stop-color="#C68F11"/>
<stop offset="1" stop-color="#D59A13" stop-opacity="0"/>
</radialGradient>
<radialGradient id="paint8_radial_5803_179" cx="0" cy="0" r="1" gradientUnits="userSpaceOnUse" gradientTransform="translate(11.8596 21.4872) rotate(17.2878) scale(5.46323 2.42605)">
<stop offset="0.312678" stop-color="#D67B36"/>
<stop offset="1" stop-color="#F79A38" stop-opacity="0"/>
</radialGradient>
<radialGradient id="paint9_radial_5803_179" cx="0" cy="0" r="1" gradientUnits="userSpaceOnUse" gradientTransform="translate(25.8865 18.6928) rotate(57.2157) scale(6.64656)">
<stop offset="0.449746" stop-color="#D67B36"/>
<stop offset="0.807218" stop-color="#F79A38" stop-opacity="0"/>
</radialGradient>
<radialGradient id="paint10_radial_5803_179" cx="0" cy="0" r="1" gradientUnits="userSpaceOnUse" gradientTransform="translate(29.7189 12.2799) rotate(48.9909) scale(1.70169 1.02028)">
<stop stop-color="#E7982E"/>
<stop offset="1" stop-color="#E39632" stop-opacity="0"/>
</radialGradient>
<radialGradient id="paint11_radial_5803_179" cx="0" cy="0" r="1" gradientUnits="userSpaceOnUse" gradientTransform="translate(29.0113 10.9489) rotate(44.132) scale(2.8619 1.42799)">
<stop stop-color="#E7982E"/>
<stop offset="1" stop-color="#E39632" stop-opacity="0"/>
</radialGradient>
<radialGradient id="paint12_radial_5803_179" cx="0" cy="0" r="1" gradientUnits="userSpaceOnUse" gradientTransform="translate(26.8958 9.72253) rotate(32.0158) scale(3.9249 1.43325)">
<stop stop-color="#E2981B"/>
<stop offset="1" stop-color="#EAA239" stop-opacity="0"/>
</radialGradient>
<radialGradient id="paint13_radial_5803_179" cx="0" cy="0" r="1" gradientUnits="userSpaceOnUse" gradientTransform="translate(25.0031 9.34277) rotate(4.19181) scale(4.0903 2.10602)">
<stop stop-color="#E2981B"/>
<stop offset="1" stop-color="#FFDC64" stop-opacity="0"/>
</radialGradient>
<radialGradient id="paint14_radial_5803_179" cx="0" cy="0" r="1" gradientUnits="userSpaceOnUse" gradientTransform="translate(26.4062 22.2559) rotate(-114.874) scale(6.77565)">
<stop offset="0.610013" stop-color="#2F1F2A"/>
<stop offset="0.731961" stop-color="#51394C"/>
<stop offset="0.795324" stop-color="#51394C"/>
<stop offset="0.911481" stop-color="#442E3E"/>
</radialGradient>
<radialGradient id="paint15_radial_5803_179" cx="0" cy="0" r="1" gradientUnits="userSpaceOnUse" gradientTransform="translate(20.731 30.4853) rotate(-103.686) scale(7.78614 5.78774)">
<stop offset="0.515561" stop-color="#2F1F2A"/>
<stop offset="0.731961" stop-color="#51394C"/>
<stop offset="0.790833" stop-color="#51394C"/>
<stop offset="0.894138" stop-color="#533B4E" stop-opacity="0"/>
</radialGradient>
<radialGradient id="paint16_radial_5803_179" cx="0" cy="0" r="1" gradientUnits="userSpaceOnUse" gradientTransform="translate(13.6681 24.6178) rotate(-25.5341) scale(7.41753 5.51373)">
<stop offset="0.515561" stop-color="#2F1F2A"/>
<stop offset="0.731961" stop-color="#51394C"/>
<stop offset="0.790833" stop-color="#51394C"/>
<stop offset="0.894138" stop-color="#533B4E" stop-opacity="0"/>
</radialGradient>
<radialGradient id="paint17_radial_5803_179" cx="0" cy="0" r="1" gradientUnits="userSpaceOnUse" gradientTransform="translate(16.5867 30.1029) rotate(-41.1859) scale(3.03573 1.53154)">
<stop offset="0.473638" stop-color="#392734"/>
<stop offset="0.95728" stop-color="#392734" stop-opacity="0"/>
</radialGradient>
<radialGradient id="paint18_radial_5803_179" cx="0" cy="0" r="1" gradientUnits="userSpaceOnUse" gradientTransform="translate(23.7682 30.1154) rotate(-73.4194) scale(3.35304 7.27696)">
<stop offset="0.652407" stop-color="#452F3F"/>
<stop offset="0.755723" stop-color="#452F3F" stop-opacity="0"/>
</radialGradient>
<radialGradient id="paint19_radial_5803_179" cx="0" cy="0" r="1" gradientUnits="userSpaceOnUse" gradientTransform="translate(22.2992 23.504) rotate(-173.895) scale(3.41852 1.72466)">
<stop offset="0.35593" stop-color="#392734"/>
<stop offset="0.633547" stop-color="#392734" stop-opacity="0"/>
</radialGradient>
<radialGradient id="paint20_radial_5803_179" cx="0" cy="0" r="1" gradientUnits="userSpaceOnUse" gradientTransform="translate(18.2093 23.4858) rotate(-108.898) scale(2.13263 5.30466)">
<stop offset="0.35593" stop-color="#392734"/>
<stop offset="0.633547" stop-color="#392734" stop-opacity="0"/>
</radialGradient>
<linearGradient id="paint21_linear_5803_179" x1="14.2129" y1="15.9966" x2="12.9758" y2="21.0546" gradientUnits="userSpaceOnUse">
<stop stop-color="#553B3E"/>
<stop offset="1" stop-color="#3D2432"/>
</linearGradient>
<linearGradient id="paint22_linear_5803_179" x1="26.4844" y1="13.2148" x2="23.9288" y2="20.5199" gradientUnits="userSpaceOnUse">
<stop stop-color="#553B3E"/>
<stop offset="1" stop-color="#3D2432"/>
</linearGradient>
<radialGradient id="paint23_radial_5803_179" cx="0" cy="0" r="1" gradientUnits="userSpaceOnUse" gradientTransform="translate(26.6544 12.5003) rotate(-39.8653) scale(5.12078 6.83179)">
<stop offset="0.610013" stop-color="#2F1F2A"/>
<stop offset="0.731961" stop-color="#51394C"/>
<stop offset="0.795324" stop-color="#51394C"/>
<stop offset="0.850632" stop-color="#50394C"/>
<stop offset="0.911481" stop-color="#442E3E"/>
</radialGradient>
<radialGradient id="paint24_radial_5803_179" cx="0" cy="0" r="1" gradientUnits="userSpaceOnUse" gradientTransform="translate(27.0661 11.2954) rotate(-55.8147) scale(5.00569 4.52704)">
<stop offset="0.645531" stop-color="#362530" stop-opacity="0"/>
<stop offset="1" stop-color="#342330"/>
</radialGradient>
<radialGradient id="paint25_radial_5803_179" cx="0" cy="0" r="1" gradientUnits="userSpaceOnUse" gradientTransform="translate(11.6493 12.3151) rotate(58.8164) scale(4.43255 5.64215)">
<stop offset="0.688117" stop-color="#4A2F37"/>
<stop offset="0.776383" stop-color="#563E48"/>
<stop offset="0.819175" stop-color="#5C4156"/>
<stop offset="0.897658" stop-color="#4D3635"/>
</radialGradient>
<clipPath id="clip0_5803_179">
<rect width="40" height="40" fill="white"/>
</clipPath>
</defs>
</svg>
