<svg width="40" height="40" viewBox="0 0 40 40" fill="none" xmlns="http://www.w3.org/2000/svg">
<path d="M5.62494 9.1015C6.05463 9.55072 6.48933 9.80212 6.85539 9.93162C8.36353 10.4651 9.15304 9.41799 9.6874 10.0781L14.6929 16.8485L18.0359 14.4257L12.9882 7.65621C12.3579 6.77715 14.8121 5.76581 13.2812 3.67183C12.4316 2.50972 11.1522 2.2558 9.99992 2.74413C9.23488 3.06833 9.02338 3.67183 8.68567 4.37278C8.53823 4.67883 8.35474 4.86708 8.06329 4.81906C7.36219 4.71351 6.63791 4.88571 6.01553 5.332C4.91859 6.11859 4.70322 8.13789 5.62494 9.1015Z" fill="url(#paint0_linear_48402_411)"/>
<path d="M5.62496 9.10153C6.05465 9.55074 6.48936 9.80214 6.85542 9.93164C8.06331 10.3589 11.3475 9.93164 9.12099 5.66408C11.7577 9.27736 15.0781 5.78127 13.2812 3.67185C12.211 2.41551 11.1523 2.25582 9.99994 2.74415C9.2349 3.06835 9.0234 3.67185 8.68569 4.3728C8.53825 4.67885 8.35476 4.8671 8.06331 4.81908C7.36221 4.71353 6.63793 4.88573 6.01555 5.33202C4.91862 6.11861 4.70324 8.13791 5.62496 9.10153Z" fill="url(#paint1_radial_48402_411)"/>
<path d="M5.62496 9.10153C6.05465 9.55074 6.48936 9.80214 6.85542 9.93164C8.06331 10.3589 11.3475 9.93164 9.12099 5.66408C11.7577 9.27736 15.0781 5.78127 13.2812 3.67185C12.211 2.41551 11.1523 2.25582 9.99994 2.74415C9.2349 3.06835 9.0234 3.67185 8.68569 4.3728C8.53825 4.67885 8.35476 4.8671 8.06331 4.81908C7.36221 4.71353 6.63793 4.88573 6.01555 5.33202C4.91862 6.11861 4.70324 8.13791 5.62496 9.10153Z" fill="url(#paint2_radial_48402_411)"/>
<path d="M5.62496 9.10153C6.05465 9.55074 6.48936 9.80214 6.85542 9.93164C8.06331 10.3589 11.3475 9.93164 9.12099 5.66408C11.7577 9.27736 15.0781 5.78127 13.2812 3.67185C12.211 2.41551 11.1523 2.25582 9.99994 2.74415C9.2349 3.06835 9.0234 3.67185 8.68569 4.3728C8.53825 4.67885 8.35476 4.8671 8.06331 4.81908C7.36221 4.71353 6.63793 4.88573 6.01555 5.33202C4.91862 6.11861 4.70324 8.13791 5.62496 9.10153Z" fill="url(#paint3_radial_48402_411)"/>
<path d="M14.2578 32.5391C17.8243 37.7216 25.1931 39.219 30.3242 35.5132C35.2174 31.9696 36.5174 24.8899 33.125 19.8828C30.9447 16.6854 27.4609 15.0391 24.0624 14.7266C21.2873 14.4714 20.0619 12.3078 18.2812 10.5469C17.0183 9.29815 15.3158 8.89828 13.9452 9.84376L11.6675 11.4078C10.2844 12.3509 10.031 14.4107 10.9765 15.7813C12.1484 18.0079 13.164 19.4532 12.9297 21.9922C12.61 25.456 12.0829 29.3815 14.2578 32.5391Z" fill="#D1815D"/>
<path d="M14.2578 32.5391C17.8243 37.7216 25.1931 39.219 30.3242 35.5132C35.2174 31.9696 36.5174 24.8899 33.125 19.8828C30.9447 16.6854 27.4609 15.0391 24.0624 14.7266C21.2873 14.4714 20.0619 12.3078 18.2812 10.5469C17.0183 9.29815 15.3158 8.89828 13.9452 9.84376L11.6675 11.4078C10.2844 12.3509 10.031 14.4107 10.9765 15.7813C12.1484 18.0079 13.164 19.4532 12.9297 21.9922C12.61 25.456 12.0829 29.3815 14.2578 32.5391Z" fill="url(#paint4_radial_48402_411)"/>
<path d="M14.2578 32.5391C17.8243 37.7216 25.1931 39.219 30.3242 35.5132C35.2174 31.9696 36.5174 24.8899 33.125 19.8828C30.9447 16.6854 27.4609 15.0391 24.0624 14.7266C21.2873 14.4714 20.0619 12.3078 18.2812 10.5469C17.0183 9.29815 15.3158 8.89828 13.9452 9.84376L11.6675 11.4078C10.2844 12.3509 10.031 14.4107 10.9765 15.7813C12.1484 18.0079 13.164 19.4532 12.9297 21.9922C12.61 25.456 12.0829 29.3815 14.2578 32.5391Z" fill="url(#paint5_radial_48402_411)"/>
<path d="M14.2578 32.5391C17.8243 37.7216 25.1931 39.219 30.3242 35.5132C35.2174 31.9696 36.5174 24.8899 33.125 19.8828C30.9447 16.6854 27.4609 15.0391 24.0624 14.7266C21.2873 14.4714 20.0619 12.3078 18.2812 10.5469C17.0183 9.29815 15.3158 8.89828 13.9452 9.84376L11.6675 11.4078C10.2844 12.3509 10.031 14.4107 10.9765 15.7813C12.1484 18.0079 13.164 19.4532 12.9297 21.9922C12.61 25.456 12.0829 29.3815 14.2578 32.5391Z" fill="url(#paint6_radial_48402_411)"/>
<path d="M14.2578 32.5391C17.8243 37.7216 25.1931 39.219 30.3242 35.5132C35.2174 31.9696 36.5174 24.8899 33.125 19.8828C30.9447 16.6854 27.4609 15.0391 24.0624 14.7266C21.2873 14.4714 20.0619 12.3078 18.2812 10.5469C17.0183 9.29815 15.3158 8.89828 13.9452 9.84376L11.6675 11.4078C10.2844 12.3509 10.031 14.4107 10.9765 15.7813C12.1484 18.0079 13.164 19.4532 12.9297 21.9922C12.61 25.456 12.0829 29.3815 14.2578 32.5391Z" fill="url(#paint7_radial_48402_411)"/>
<path d="M14.2578 32.5391C17.8243 37.7216 25.1931 39.219 30.3242 35.5132C35.2174 31.9696 36.5174 24.8899 33.125 19.8828C30.9447 16.6854 27.4609 15.0391 24.0624 14.7266C21.2873 14.4714 20.0619 12.3078 18.2812 10.5469C17.0183 9.29815 15.3158 8.89828 13.9452 9.84376L11.6675 11.4078C10.2844 12.3509 10.031 14.4107 10.9765 15.7813C12.1484 18.0079 13.164 19.4532 12.9297 21.9922C12.61 25.456 12.0829 29.3815 14.2578 32.5391Z" fill="url(#paint8_radial_48402_411)"/>
<path d="M14.2578 32.5391C17.8243 37.7216 25.1931 39.219 30.3242 35.5132C35.2174 31.9696 36.5174 24.8899 33.125 19.8828C30.9447 16.6854 27.4609 15.0391 24.0624 14.7266C21.2873 14.4714 20.0619 12.3078 18.2812 10.5469C17.0183 9.29815 15.3158 8.89828 13.9452 9.84376L11.6675 11.4078C10.2844 12.3509 10.031 14.4107 10.9765 15.7813C12.1484 18.0079 13.164 19.4532 12.9297 21.9922C12.61 25.456 12.0829 29.3815 14.2578 32.5391Z" fill="url(#paint9_radial_48402_411)"/>
<circle cx="27.5" cy="20" r="1.25" fill="#E78A61"/>
<circle cx="30.0977" cy="22.9883" r="1.25" fill="#E78A61"/>
<circle cx="26.25" cy="23.75" r="1.25" fill="#E78A61"/>
<g filter="url(#filter0_f_48402_411)">
<path d="M12.2039 12.1875C11.7091 12.6302 10.8445 13.7188 11.657 15.4688" stroke="url(#paint10_linear_48402_411)" stroke-width="0.5" stroke-linecap="round"/>
</g>
<g filter="url(#filter1_f_48402_411)">
<path d="M12.5906 6.9472C12.4119 7.55976 11.493 7.83052 10.5383 7.55195C9.58354 7.27339 8.95445 6.55099 9.13318 5.93844C9.3119 5.32588 10.181 5.22582 11.1357 5.50438C12.0904 5.78295 12.7693 6.33464 12.5906 6.9472Z" fill="#D3B2EE"/>
</g>
<g filter="url(#filter2_f_48402_411)">
<path d="M9.35547 9.45312C9.86328 9.0625 10.1094 8.09375 9.76562 6.875" stroke="url(#paint11_linear_48402_411)" stroke-width="0.5"/>
</g>
<defs>
<filter id="filter0_f_48402_411" x="9.57324" y="10.4375" width="4.38062" height="6.78131" filterUnits="userSpaceOnUse" color-interpolation-filters="sRGB">
<feFlood flood-opacity="0" result="BackgroundImageFix"/>
<feBlend mode="normal" in="SourceGraphic" in2="BackgroundImageFix" result="shape"/>
<feGaussianBlur stdDeviation="0.75" result="effect1_foregroundBlur_48402_411"/>
</filter>
<filter id="filter1_f_48402_411" x="8.10278" y="4.35675" width="5.51648" height="4.30481" filterUnits="userSpaceOnUse" color-interpolation-filters="sRGB">
<feFlood flood-opacity="0" result="BackgroundImageFix"/>
<feBlend mode="normal" in="SourceGraphic" in2="BackgroundImageFix" result="shape"/>
<feGaussianBlur stdDeviation="0.5" result="effect1_foregroundBlur_48402_411"/>
</filter>
<filter id="filter2_f_48402_411" x="8.703" y="6.30713" width="1.97217" height="3.84418" filterUnits="userSpaceOnUse" color-interpolation-filters="sRGB">
<feFlood flood-opacity="0" result="BackgroundImageFix"/>
<feBlend mode="normal" in="SourceGraphic" in2="BackgroundImageFix" result="shape"/>
<feGaussianBlur stdDeviation="0.25" result="effect1_foregroundBlur_48402_411"/>
</filter>
<linearGradient id="paint0_linear_48402_411" x1="10.3905" y1="10.625" x2="13.9843" y2="8.04687" gradientUnits="userSpaceOnUse">
<stop stop-color="#B394CB"/>
<stop offset="0.471607" stop-color="#E3D6E9"/>
<stop offset="0.699376" stop-color="#FAF2F9"/>
</linearGradient>
<radialGradient id="paint1_radial_48402_411" cx="0" cy="0" r="1" gradientUnits="userSpaceOnUse" gradientTransform="translate(8.28114 6.79689) rotate(125.362) scale(2.96978 3.05416)">
<stop stop-color="#F4E8FF"/>
<stop offset="1" stop-color="#CAC7CF"/>
</radialGradient>
<radialGradient id="paint2_radial_48402_411" cx="0" cy="0" r="1" gradientUnits="userSpaceOnUse" gradientTransform="translate(6.87489 12.3438) rotate(-56.9761) scale(5.59072 5.72739)">
<stop offset="0.420945" stop-color="#C489EE"/>
<stop offset="1" stop-color="#C68FEE" stop-opacity="0"/>
</radialGradient>
<radialGradient id="paint3_radial_48402_411" cx="0" cy="0" r="1" gradientUnits="userSpaceOnUse" gradientTransform="translate(12.1874 4.37502) rotate(120.261) scale(5.51747 5.65235)">
<stop offset="0.0741848" stop-color="#FAF4FF"/>
<stop offset="0.845847" stop-color="#C5C2C7" stop-opacity="0"/>
</radialGradient>
<radialGradient id="paint4_radial_48402_411" cx="0" cy="0" r="1" gradientUnits="userSpaceOnUse" gradientTransform="translate(29.7609 21.3504) rotate(123.104) scale(21.0649 21.261)">
<stop offset="0.0569907" stop-color="#FFC995"/>
<stop offset="0.593566" stop-color="#C07554"/>
<stop offset="0.791853" stop-color="#B26B50"/>
<stop offset="1" stop-color="#80584B"/>
</radialGradient>
<radialGradient id="paint5_radial_48402_411" cx="0" cy="0" r="1" gradientUnits="userSpaceOnUse" gradientTransform="translate(19.5312 10.7812) rotate(43.6361) scale(9.28341 6.66586)">
<stop stop-color="#FFD2B0"/>
<stop offset="1" stop-color="#FCB682" stop-opacity="0"/>
</radialGradient>
<radialGradient id="paint6_radial_48402_411" cx="0" cy="0" r="1" gradientUnits="userSpaceOnUse" gradientTransform="translate(26.0156 16.7969) rotate(118.025) scale(32.9228 33.2294)">
<stop offset="0.38531" stop-color="#C66576" stop-opacity="0"/>
<stop offset="0.614501" stop-color="#AE4B94"/>
<stop offset="0.694558" stop-color="#BD68C6"/>
</radialGradient>
<radialGradient id="paint7_radial_48402_411" cx="0" cy="0" r="1" gradientUnits="userSpaceOnUse" gradientTransform="translate(37.6336 27.5) rotate(95.8681) scale(12.0047 12.1165)">
<stop stop-color="#FFAF79"/>
<stop offset="1" stop-color="#FFAD78" stop-opacity="0"/>
</radialGradient>
<radialGradient id="paint8_radial_48402_411" cx="0" cy="0" r="1" gradientUnits="userSpaceOnUse" gradientTransform="translate(13.0468 24.5313) rotate(74.5923) scale(10.2918 8.54916)">
<stop stop-color="#956A56"/>
<stop offset="1" stop-color="#B27759" stop-opacity="0"/>
</radialGradient>
<radialGradient id="paint9_radial_48402_411" cx="0" cy="0" r="1" gradientUnits="userSpaceOnUse" gradientTransform="translate(10.7031 17.3437) rotate(75.1243) scale(5.17339 5.22156)">
<stop stop-color="#874E46"/>
<stop offset="1" stop-color="#874E45" stop-opacity="0"/>
</radialGradient>
<linearGradient id="paint10_linear_48402_411" x1="11.2854" y1="14.431" x2="11.9384" y2="14.3789" gradientUnits="userSpaceOnUse">
<stop stop-color="#A57359"/>
<stop offset="0.8899" stop-color="#DEDCD9"/>
</linearGradient>
<linearGradient id="paint11_linear_48402_411" x1="9.16016" y1="9.27734" x2="9.64032" y2="6.46484" gradientUnits="userSpaceOnUse">
<stop stop-color="#C390E6"/>
<stop offset="1" stop-color="#DCC2F2"/>
</linearGradient>
</defs>
</svg>
