<svg width="24" height="24" viewBox="0 0 24 24" fill="none" xmlns="http://www.w3.org/2000/svg">
<path d="M9.5272 18.1132L9.75 17.868V16.6594L6.09961 8.95312H4.40039L0.75 16.6594V17.927L0.948469 18.1424C1.49357 18.7326 2.15482 19.2038 2.89069 19.5263C3.62655 19.8488 4.42115 20.0157 5.22459 20.0165H5.24428C6.05103 20.0129 6.84825 19.8419 7.58548 19.5143C8.32272 19.1867 8.98391 18.7095 9.5272 18.1132ZM8.25 17.2785C7.44975 18.0733 6.36707 18.5186 5.23917 18.5166H5.2237C4.11565 18.5221 3.04901 18.0959 2.25 17.3281V16.9969L5.25 10.6635L8.25 16.9969V17.2785ZM19.5996 8.95312H17.9004L14.25 16.6594V17.927L14.4485 18.1424C14.9936 18.7326 15.6548 19.2038 16.3907 19.5263C17.1266 19.8488 17.9212 20.0157 18.7246 20.0165H18.7443C19.551 20.0129 20.3483 19.8419 21.0855 19.5142C21.8227 19.1866 22.4839 18.7095 23.0272 18.1131L23.25 17.868V16.6594L19.5996 8.95312ZM21.75 17.2785C20.9498 18.0733 19.8671 18.5186 18.7392 18.5166H18.7237C17.6156 18.5221 16.549 18.0959 15.75 17.3281V16.9969L18.75 10.6635L21.75 16.9969V17.2785Z" fill="white"/>
<path d="M12.75 9.2184C13.1672 9.09299 13.5468 8.86611 13.8549 8.55805C14.163 8.24999 14.3899 7.87036 14.5153 7.45314H19.5V5.95314H14.5153C14.3538 5.41142 14.0218 4.93629 13.5686 4.59846C13.1154 4.26062 12.5653 4.07813 12 4.07812C11.4347 4.07813 10.8846 4.26062 10.4314 4.59846C9.97819 4.93629 9.64617 5.41142 9.48473 5.95314H4.5V7.45314H9.48473C9.61014 7.87036 9.83703 8.24999 10.1451 8.55805C10.4532 8.86611 10.8328 9.09299 11.25 9.2184V21.7031H6.375V23.2031H17.625V21.7031H12.75V9.2184ZM10.875 6.70314C10.875 6.48063 10.941 6.26313 11.0646 6.07812C11.1882 5.89312 11.3639 5.74892 11.5695 5.66377C11.775 5.57862 12.0012 5.55635 12.2195 5.59975C12.4377 5.64316 12.6382 5.75031 12.7955 5.90764C12.9528 6.06498 13.06 6.26543 13.1034 6.48366C13.1468 6.70189 13.1245 6.92809 13.0394 7.13366C12.9542 7.33922 12.81 7.51492 12.625 7.63854C12.44 7.76216 12.2225 7.82814 12 7.82814C11.7016 7.82814 11.4155 7.70961 11.2045 7.49863C10.9935 7.28765 10.875 7.00151 10.875 6.70314Z" fill="white"/>
</svg>
