<svg width="24" height="24" viewBox="0 0 24 24" fill="none" xmlns="http://www.w3.org/2000/svg">
<g id="Icon-invisible">
<path id="Vector" d="M2.62505 16.406C2.71071 16.4549 2.80517 16.4863 2.90301 16.4986C3.00085 16.511 3.10016 16.5038 3.19525 16.4777C3.29034 16.4516 3.37934 16.407 3.45717 16.3464C3.535 16.2858 3.60011 16.2105 3.6488 16.1248L5.43005 13.0123C6.4656 13.7125 7.60795 14.24 8.81255 14.5741L8.26224 17.876C8.246 17.9732 8.24908 18.0727 8.2713 18.1687C8.29352 18.2647 8.33444 18.3554 8.39173 18.4356C8.44902 18.5158 8.52155 18.5839 8.60518 18.636C8.68881 18.6882 8.78189 18.7233 8.87911 18.7395C8.9191 18.746 8.95953 18.7495 9.00005 18.7498C9.17747 18.7495 9.34906 18.6863 9.48432 18.5715C9.61958 18.4567 9.70974 18.2976 9.7388 18.1226L10.2797 14.8807C11.4205 15.0395 12.5777 15.0395 13.7185 14.8807L14.2594 18.1226C14.2885 18.2979 14.379 18.4573 14.5146 18.5721C14.6503 18.687 14.8223 18.75 15 18.7498C15.0415 18.7496 15.0829 18.7462 15.1238 18.7395C15.221 18.7233 15.3141 18.6882 15.3977 18.636C15.4814 18.5839 15.5539 18.5158 15.6112 18.4356C15.6685 18.3554 15.7094 18.2647 15.7316 18.1687C15.7538 18.0727 15.7569 17.9732 15.7407 17.876L15.1875 14.5741C16.3917 14.2389 17.5334 13.7105 18.5682 13.0095L20.3438 16.1248C20.393 16.2106 20.4587 16.2859 20.537 16.3463C20.6154 16.4067 20.7049 16.4511 20.8004 16.477C20.8958 16.5028 20.9955 16.5096 21.0936 16.497C21.1918 16.4843 21.2864 16.4525 21.3722 16.4032C21.458 16.354 21.5333 16.2883 21.5937 16.21C21.6542 16.1316 21.6986 16.0422 21.7245 15.9467C21.7503 15.8512 21.7571 15.7515 21.7444 15.6534C21.7318 15.5553 21.6999 15.4606 21.6507 15.3748L19.7757 12.0935C20.4343 11.5245 21.0399 10.897 21.585 10.2185C21.653 10.1426 21.7048 10.0536 21.7373 9.95704C21.7698 9.86045 21.7822 9.75824 21.7738 9.65668C21.7655 9.55512 21.7365 9.45632 21.6887 9.36632C21.6409 9.27633 21.5753 9.19701 21.4958 9.13323C21.4163 9.06944 21.3247 9.02252 21.2265 8.99533C21.1283 8.96815 21.0255 8.96126 20.9246 8.97509C20.8236 8.98892 20.7265 9.02318 20.6392 9.07578C20.552 9.12838 20.4763 9.19821 20.4169 9.28102C18.8607 11.2066 16.1382 13.4998 12 13.4998C7.86192 13.4998 5.13942 11.2038 3.58317 9.28102C3.52446 9.19652 3.44898 9.125 3.36143 9.07092C3.27389 9.01684 3.17616 8.98135 3.07431 8.96666C2.97247 8.95198 2.86869 8.9584 2.76943 8.98555C2.67017 9.01269 2.57756 9.05997 2.49736 9.12443C2.41716 9.1889 2.35109 9.26919 2.30325 9.36029C2.25541 9.45139 2.22682 9.55137 2.21928 9.65399C2.21173 9.75661 2.22539 9.85969 2.25939 9.95681C2.29339 10.0539 2.34701 10.143 2.41692 10.2185C2.96211 10.897 3.56771 11.5245 4.2263 12.0935L2.3513 15.3748C2.30096 15.4603 2.26811 15.555 2.25463 15.6533C2.24116 15.7516 2.24733 15.8517 2.27279 15.9476C2.29825 16.0435 2.3425 16.1334 2.40297 16.2121C2.46343 16.2908 2.53892 16.3567 2.62505 16.406Z" fill="#252F2C"/>
</g>
</svg>
