<svg width="25" height="24" viewBox="0 0 25 24" fill="none" xmlns="http://www.w3.org/2000/svg">
<rect width="24" height="24" transform="translate(0.333374)" fill="none"/>
<path d="M4.5554 21.995V18.445C4.5554 17.174 4.2224 16.513 3.5684 15.408C2.77113 14.0581 2.34509 12.5214 2.33349 10.9537C2.3219 9.38603 2.72517 7.84317 3.50239 6.48167C4.27962 5.12016 5.40313 3.98845 6.75896 3.20136C8.11478 2.41427 9.65467 1.9998 11.2224 2C13.5795 2.00027 15.84 2.93659 17.5069 4.60311C19.1738 6.26963 20.1106 8.52992 20.1114 10.887C20.1114 11.467 20.1114 11.757 20.1354 11.919C20.1934 12.307 20.3754 12.641 20.5524 12.987L22.3334 16.441L20.9334 17.141C20.5284 17.343 20.3254 17.444 20.1844 17.631C20.0434 17.818 20.0034 18.03 19.9244 18.451L19.9164 18.493C19.7334 19.461 19.5324 20.529 18.9664 21.203C18.7664 21.44 18.5184 21.633 18.2394 21.77C17.7784 21.995 17.2114 21.995 16.0774 21.995C15.5524 21.995 15.0264 22.007 14.5014 21.995C13.2584 21.964 12.3334 20.918 12.3334 19.705" stroke="white" stroke-width="1.5" stroke-linecap="round" stroke-linejoin="round"/>
<path d="M14.7214 10.532C14.2954 10.532 13.9064 10.37 13.6114 10.105M14.7214 10.532C14.7214 11.678 14.0574 12.766 12.7794 12.766C11.5014 12.766 10.8374 13.854 10.8374 15M14.7214 10.532C16.8714 10.532 16.8714 7.18099 14.7214 7.18099C14.5254 7.18165 14.3397 7.21332 14.1644 7.27599C14.2694 4.77799 10.6684 4.09999 9.85241 6.43999M9.85241 6.43999C10.4474 6.84099 10.8374 7.52299 10.8374 8.29699M9.85241 6.43999C8.00041 5.18999 5.53241 7.43299 6.70641 9.43299C4.73641 9.72799 4.94641 12.766 6.95341 12.766C7.22101 12.7659 7.48462 12.7011 7.72177 12.5771C7.95892 12.4531 8.16258 12.2737 8.31541 12.054" stroke="white" stroke-width="1.5" stroke-linecap="round" stroke-linejoin="round"/>
</svg>
