<svg width="24" height="24" viewBox="0 0 24 24" fill="none" xmlns="http://www.w3.org/2000/svg">
<path d="M4.4 12.8L6 13.6M19.6 13.2L18 13.6M8.8 17.2L8.9968 16.7088C9.2888 15.9784 9.4352 15.6128 9.74 15.4064C10.044 15.2 10.4376 15.2 11.2248 15.2H12.7752C13.5624 15.2 13.956 15.2 14.26 15.4064C14.564 15.6128 14.7112 15.9784 15.004 16.7088L15.2 17.2M4 16.8V19.1056C4 19.4088 4.192 19.6856 4.4976 19.8208C4.6952 19.9088 4.884 20 5.1128 20H6.4872C6.716 20 6.9048 19.9088 7.1032 19.8208C7.4072 19.6856 7.6 19.4088 7.6 19.1056V17.6M16.4 17.6V19.1056C16.4 19.4088 16.592 19.6856 16.8976 19.8208C17.0952 19.9088 17.284 20 17.5128 20H18.8872C19.116 20 19.3048 19.9088 19.5032 19.8208C19.8072 19.6856 20 19.4088 20 19.1056V16.8M18.4 10L19.2 9.6M5.6 10L4.8 9.6M6 10.8L6.8704 8.188C7.2224 7.132 7.3984 6.604 7.8176 6.3024C8.2368 6.0008 8.7936 6 9.9064 6H14.0936C15.2064 6 15.7632 6 16.1816 6.3024C16.6016 6.604 16.7776 7.132 17.1296 8.188L18 10.8M14.8 6C14.608 5.0344 14.512 4.552 14.2832 4.276C14.0544 4 13.7504 4 13.1432 4H10.8576C10.2496 4 9.9456 4 9.7168 4.276C9.488 4.552 9.392 5.0344 9.2 6" stroke="#252F2C" stroke-linecap="round" stroke-linejoin="round"/>
<path d="M6 11H18C18.7656 11.7881 20 12.8859 20 14.1105V16.81C20 17.2539 19.696 17.6269 19.2936 17.6788L16.8 18H7.2L4.7064 17.6788C4.304 17.6269 4 17.2539 4 16.81V14.1105C4 12.8859 5.2344 11.7881 6 11Z" stroke="#252F2C" stroke-linecap="round" stroke-linejoin="round"/>
</svg>
