<svg width="22" height="22" viewBox="0 0 22 22" fill="none" xmlns="http://www.w3.org/2000/svg">
<path d="M20.5 11H18.389M18.389 11C18.389 12.9598 17.611 14.8389 16.2252 16.2247C14.8394 17.6105 12.9598 18.389 11 18.389M18.389 11C18.389 9.04018 17.611 7.16013 16.2252 5.77433C14.8394 4.38853 12.9598 3.611 11 3.611M11 1.5V3.611M11 3.611C9.04032 3.611 7.16089 4.38848 5.77519 5.77419C4.38948 7.15989 3.611 9.03931 3.611 10.999C3.611 12.9587 4.38948 14.8381 5.77519 16.2238C7.16089 17.6095 9.04032 18.389 11 18.389M1.5 11H3.611M11 20.5V18.389" stroke="#FFFFFF" stroke-width="1.5" stroke-miterlimit="10" stroke-linecap="round"/>
<path d="M11.0001 15.222C12.1198 15.222 13.1937 14.7772 13.9855 13.9854C14.7773 13.1936 15.2221 12.1198 15.2221 11C15.2221 9.88027 14.7773 8.80639 13.9855 8.01461C13.1937 7.22283 12.1198 6.77802 11.0001 6.77802C9.88033 6.77802 8.80645 7.22283 8.01467 8.01461C7.22289 8.80639 6.77808 9.88027 6.77808 11C6.77808 12.1198 7.22289 13.1936 8.01467 13.9854C8.80645 14.7772 9.88033 15.222 11.0001 15.222Z" stroke="#FFFFFF" stroke-width="1.5" stroke-miterlimit="10" stroke-linecap="round"/>
</svg>
