<svg width="24" height="24" viewBox="0 0 24 24" fill="none" xmlns="http://www.w3.org/2000/svg">
<path d="M6.385 19.462V19L7.885 18C7.081 18 6.39933 17.72 5.84 17.16C5.28 16.6013 5 15.92 5 15.116V6C5 4.93733 5.54533 4.17167 6.636 3.703C7.728 3.23433 9.516 3 12 3C14.508 3 16.3013 3.23133 17.38 3.694C18.4587 4.15667 18.9987 4.92533 19 6V15.116C19 15.9193 18.72 16.601 18.16 17.161C17.6007 17.7203 16.9193 18 16.116 18L17.616 19V19.462H6.385ZM6 11H11.5V6.539H6V11ZM16.116 12H6H18H16.116ZM12.5 11H18V6.539H12.5V11ZM8.5 15.616C8.814 15.616 9.07833 15.5083 9.293 15.293C9.50833 15.0783 9.616 14.814 9.616 14.5C9.616 14.186 9.50833 13.9217 9.293 13.707C9.07833 13.4917 8.814 13.384 8.5 13.384C8.186 13.384 7.92167 13.4917 7.707 13.707C7.49167 13.9217 7.384 14.186 7.384 14.5C7.384 14.814 7.49167 15.0783 7.707 15.293C7.92167 15.5083 8.186 15.616 8.5 15.616ZM15.5 15.616C15.814 15.616 16.0783 15.5083 16.293 15.293C16.5083 15.0783 16.616 14.814 16.616 14.5C16.616 14.186 16.5083 13.9217 16.293 13.707C16.0783 13.4917 15.814 13.384 15.5 13.384C15.186 13.384 14.9217 13.4917 14.707 13.707C14.4917 13.9217 14.384 14.186 14.384 14.5C14.384 14.814 14.4917 15.0783 14.707 15.293C14.9217 15.5083 15.186 15.616 15.5 15.616ZM7.885 17H16.115C16.6383 17 17.0833 16.8167 17.45 16.45C17.8167 16.0833 18 15.6383 18 15.115V12H6V15.116C6 15.6387 6.18333 16.0833 6.55 16.45C6.91667 16.8167 7.36167 17 7.885 17ZM12 4C10.1693 4 8.78 4.125 7.832 4.375C6.884 4.625 6.308 5.013 6.104 5.539H17.919C17.7343 5.013 17.168 4.625 16.22 4.375C15.272 4.125 13.8653 4 12 4ZM12 5.539H17.919H6.104H12Z" fill="#252F2C"/>
</svg>
