<svg width="24" height="24" viewBox="0 0 24 24" fill="none" xmlns="http://www.w3.org/2000/svg">
<g id="Icon - health">
<rect width="24" height="24" fill="white"/>
<path id="Vector" d="M12 9.00007V15.0001M8.99998 12.0001H15M19.463 3.99408C16.781 2.34908 14.44 3.01108 13.034 4.06708C12.458 4.50008 12.17 4.71708 12 4.71708C11.83 4.71708 11.542 4.50008 10.966 4.06708C9.55998 3.01108 7.21898 2.35008 4.53698 3.99408C1.01798 6.15208 0.221981 13.2741 8.33998 19.2831C9.88598 20.4271 10.659 20.9991 12 20.9991C13.341 20.9991 14.114 20.4271 15.66 19.2831C23.778 13.2741 22.982 6.15408 19.463 3.99408Z" stroke="#252F2C" stroke-width="1.5" stroke-linecap="round" stroke-linejoin="round"/>
</g>
</svg>
