<svg width="24" height="24" viewBox="0 0 24 24" fill="none" xmlns="http://www.w3.org/2000/svg">
<g id="Icon - mailbox">
<path id="Vector" d="M9.5625 14.25C9.5625 14.3992 9.50324 14.5423 9.39775 14.6477C9.29226 14.7532 9.14918 14.8125 9 14.8125H5.25C5.10082 14.8125 4.95774 14.7532 4.85225 14.6477C4.74676 14.5423 4.6875 14.3992 4.6875 14.25C4.6875 14.1008 4.74676 13.9577 4.85225 13.8523C4.95774 13.7468 5.10082 13.6875 5.25 13.6875H9C9.14918 13.6875 9.29226 13.7468 9.39775 13.8523C9.50324 13.9577 9.5625 14.1008 9.5625 14.25ZM22.3125 10.875V16.5C22.3125 16.8481 22.1742 17.1819 21.9281 17.4281C21.6819 17.6742 21.3481 17.8125 21 17.8125H12.5625V21C12.5625 21.1492 12.5032 21.2923 12.3977 21.3977C12.2923 21.5032 12.1492 21.5625 12 21.5625C11.8508 21.5625 11.7077 21.5032 11.6023 21.3977C11.4968 21.2923 11.4375 21.1492 11.4375 21V17.8125H3C2.6519 17.8125 2.31806 17.6742 2.07192 17.4281C1.82578 17.1819 1.6875 16.8481 1.6875 16.5V10.875C1.68924 9.43342 2.26267 8.05138 3.28202 7.03203C4.30138 6.01267 5.68342 5.43924 7.125 5.4375H14.4375V2.25C14.4375 2.10082 14.4968 1.95774 14.6023 1.85225C14.7077 1.74676 14.8508 1.6875 15 1.6875H18C18.1492 1.6875 18.2923 1.74676 18.3977 1.85225C18.5032 1.95774 18.5625 2.10082 18.5625 2.25C18.5625 2.39918 18.5032 2.54226 18.3977 2.64775C18.2923 2.75324 18.1492 2.8125 18 2.8125H15.5625V5.4375H16.875C18.3166 5.43924 19.6986 6.01267 20.718 7.03203C21.7373 8.05138 22.3108 9.43342 22.3125 10.875ZM11.4375 16.6875V10.875C11.4375 9.73125 10.9831 8.63435 10.1744 7.8256C9.36565 7.01685 8.26875 6.5625 7.125 6.5625C5.98125 6.5625 4.88435 7.01685 4.0756 7.8256C3.26685 8.63435 2.8125 9.73125 2.8125 10.875V16.5C2.8125 16.5497 2.83225 16.5974 2.86742 16.6326C2.90258 16.6677 2.95027 16.6875 3 16.6875H11.4375ZM21.1875 10.875C21.186 9.73171 20.7312 8.63567 19.9228 7.82725C19.1143 7.01882 18.0183 6.56399 16.875 6.5625H15.5625V13.5C15.5625 13.6492 15.5032 13.7923 15.3977 13.8977C15.2923 14.0032 15.1492 14.0625 15 14.0625C14.8508 14.0625 14.7077 14.0032 14.6023 13.8977C14.4968 13.7923 14.4375 13.6492 14.4375 13.5V6.5625H10.4334C11.0956 7.06958 11.6321 7.72236 12.0014 8.47023C12.3706 9.2181 12.5626 10.041 12.5625 10.875V16.6875H21C21.0497 16.6875 21.0974 16.6677 21.1326 16.6326C21.1677 16.5974 21.1875 16.5497 21.1875 16.5V10.875Z" fill="#252F2C"/>
</g>
</svg>
