<svg width="24" height="24" viewBox="0 0 24 24" fill="none" xmlns="http://www.w3.org/2000/svg">
<rect width="24" height="24" fill="white"/>
<path d="M4.22215 21.995V18.445C4.22215 17.174 3.88915 16.513 3.23515 15.408C2.43788 14.0581 2.01184 12.5214 2.00024 10.9537C1.98865 9.38603 2.39192 7.84317 3.16914 6.48167C3.94636 5.12016 5.06988 3.98845 6.4257 3.20136C7.78153 2.41427 9.32142 1.9998 10.8891 2C13.2462 2.00027 15.5067 2.93659 17.1736 4.60311C18.8405 6.26963 19.7774 8.52992 19.7781 10.887C19.7781 11.467 19.7781 11.757 19.8021 11.919C19.8601 12.307 20.0421 12.641 20.2191 12.987L22.0001 16.441L20.6001 17.141C20.1951 17.343 19.9921 17.444 19.8511 17.631C19.7101 17.818 19.6701 18.03 19.5911 18.451L19.5831 18.493C19.4001 19.461 19.1991 20.529 18.6331 21.203C18.4331 21.44 18.1851 21.633 17.9061 21.77C17.4451 21.995 16.8781 21.995 15.7441 21.995C15.2191 21.995 14.6931 22.007 14.1681 21.995C12.9251 21.964 12.0001 20.918 12.0001 19.705" stroke="#252F2C" stroke-width="1.5" stroke-linecap="round" stroke-linejoin="round"/>
<path d="M14.3883 10.5321C13.9623 10.5321 13.5733 10.3701 13.2783 10.1051M14.3883 10.5321C14.3883 11.6781 13.7243 12.7661 12.4463 12.7661C11.1683 12.7661 10.5043 13.8541 10.5043 15.0001M14.3883 10.5321C16.5383 10.5321 16.5383 7.18111 14.3883 7.18111C14.1923 7.18178 14.0066 7.21344 13.8313 7.27611C13.9363 4.77811 10.3353 4.10011 9.51928 6.44011M9.51928 6.44011C10.1143 6.84111 10.5043 7.52311 10.5043 8.29711M9.51928 6.44011C7.66728 5.19011 5.19928 7.43311 6.37328 9.43311C4.40328 9.72811 4.61328 12.7661 6.62028 12.7661C6.88788 12.766 7.15149 12.7012 7.38864 12.5772C7.62579 12.4533 7.82945 12.2738 7.98228 12.0541" stroke="#252F2C" stroke-width="1.5" stroke-linecap="round" stroke-linejoin="round"/>
</svg>
