<svg width="24" height="24" viewBox="0 0 24 24" fill="none" xmlns="http://www.w3.org/2000/svg">
<g id="Icon-email">
<path id="Vector" d="M21 8.99979V17.9998C21 18.7954 20.6839 19.5585 20.1213 20.1211C19.5587 20.6837 18.7956 20.9998 18 20.9998H5C4.20435 20.9998 3.44129 20.6837 2.87868 20.1211C2.31607 19.5585 2 18.7954 2 17.9998V8.99979C2 7.88979 2.6 6.91979 3.5 6.39979L11.5 1.77979L19.5 6.39979C20.4 6.91979 21 7.88979 21 8.99979ZM3.72 7.46978L11.5 12.4998L19.28 7.46978L11.5 2.92979L3.72 7.46978ZM11.5 13.7098L3.13 8.27979C3.05 8.49978 3 8.74979 3 8.99979V17.9998C3 18.5302 3.21071 19.0389 3.58579 19.414C3.96086 19.7891 4.46957 19.9998 5 19.9998H18C18.5304 19.9998 19.0391 19.7891 19.4142 19.414C19.7893 19.0389 20 18.5302 20 17.9998V8.99979C20 8.74979 19.95 8.49978 19.87 8.27979L11.5 13.7098Z" fill="#252F2C"/>
</g>
</svg>
