<svg width="24" height="24" viewBox="0 0 24 24" fill="none" xmlns="http://www.w3.org/2000/svg">
<g id="Icon - keyboard">
<rect width="24" height="24" fill="white"/>
<path id="Vector" d="M4.616 18C4.15533 18 3.771 17.846 3.463 17.538C3.155 17.23 3.00067 16.8453 3 16.384V7.616C3 7.15533 3.15433 6.771 3.463 6.463C3.77167 6.155 4.15567 6.00067 4.615 6H19.385C19.845 6 20.229 6.15433 20.537 6.463C20.845 6.77167 20.9993 7.156 21 7.616V16.385C21 16.845 20.8457 17.2293 20.537 17.538C20.2283 17.8467 19.8443 18.0007 19.385 18H4.616ZM4.616 17H19.385C19.5383 17 19.6793 16.936 19.808 16.808C19.9367 16.68 20.0007 16.5387 20 16.384V7.616C20 7.462 19.936 7.32067 19.808 7.192C19.68 7.06333 19.539 6.99933 19.385 7H4.615C4.46167 7 4.32067 7.064 4.192 7.192C4.06333 7.32 3.99933 7.46133 4 7.616V16.385C4 16.5383 4.064 16.6793 4.192 16.808C4.32 16.9367 4.461 17.0007 4.615 17M8.231 15.77H15.769V14.23H8.231V15.77ZM5.231 12.77H6.769V11.23H5.231V12.77ZM8.231 12.77H9.769V11.23H8.231V12.77ZM11.231 12.77H12.769V11.23H11.231V12.77ZM14.231 12.77H15.769V11.23H14.231V12.77ZM17.231 12.77H18.769V11.23H17.231V12.77ZM5.231 9.77H6.769V8.23H5.231V9.77ZM8.231 9.77H9.769V8.23H8.231V9.77ZM11.231 9.77H12.769V8.23H11.231V9.77ZM14.231 9.77H15.769V8.23H14.231V9.77ZM17.231 9.77H18.769V8.23H17.231V9.77Z" fill="#252F2C"/>
</g>
</svg>
