<svg width="24" height="24" viewBox="0 0 24 24" fill="none" xmlns="http://www.w3.org/2000/svg">
<g id="gg:menu-right">
<path id="Vector" d="M2 5.995C2 5.445 2.446 5 2.995 5H11.005C11.2689 5 11.522 5.10483 11.7086 5.29143C11.8952 5.47803 12 5.73111 12 5.995C12 6.25889 11.8952 6.51197 11.7086 6.69857C11.522 6.88517 11.2689 6.99 11.005 6.99H2.995C2.445 6.99 2 6.545 2 5.995ZM2 12C2 11.45 2.446 11.005 2.995 11.005L21.005 11.005C21.2689 11.005 21.522 11.1098 21.7086 11.2964C21.8952 11.483 22 11.7361 22 12C22 12.2639 21.8952 12.517 21.7086 12.7036C21.522 12.8902 21.2689 12.995 21.005 12.995L2.995 12.995C2.445 12.995 2 12.549 2 12ZM2.995 17.01C2.73111 17.01 2.47803 17.1148 2.29143 17.3014C2.10483 17.488 2 17.7411 2 18.005C2 18.2689 2.10483 18.522 2.29143 18.7086C2.47803 18.8952 2.73111 19 2.995 19L15.005 19C15.1357 19 15.2651 18.9743 15.3858 18.9243C15.5065 18.8743 15.6162 18.801 15.7086 18.7086C15.801 18.6162 15.8743 18.5065 15.9243 18.3858C15.9743 18.2651 16 18.1357 16 18.005C16 17.8743 15.9743 17.7449 15.9243 17.6242C15.8743 17.5035 15.801 17.3938 15.7086 17.3014C15.6162 17.209 15.5065 17.1357 15.3858 17.0857C15.2651 17.0357 15.1357 17.01 15.005 17.01L2.995 17.01Z" fill="#252F2C"/>
</g>
</svg>
