<svg width="16" height="16" viewBox="0 0 16 16" fill="none" xmlns="http://www.w3.org/2000/svg">
<g clip-path="url(#clip0_348_2131)">
<path d="M10.4531 9.72483C12.7798 9.72483 14.6665 7.84616 14.6665 5.52883C14.6665 3.21216 12.7798 1.3335 10.4531 1.3335C8.12646 1.3335 6.24179 3.21216 6.24179 5.52883C6.24179 6.60216 6.73113 7.38283 6.73113 7.38283L1.63646 12.4562C1.40779 12.6842 1.08779 13.2762 1.63646 13.8228L2.22446 14.4082C2.45313 14.6035 3.02779 14.8768 3.49779 14.4082L4.18446 13.7255C4.86979 14.4082 5.65379 14.0182 5.94779 13.6275C6.43713 12.9448 5.84979 12.2615 5.84979 12.2615L6.04579 12.0662C6.98579 13.0035 7.80913 12.4568 8.10313 12.0662C8.59313 11.3835 8.10313 10.7002 8.10313 10.7002C7.90713 10.3102 7.51513 10.3102 8.00513 9.82216L8.59313 9.23683C9.06313 9.62683 10.0298 9.72483 10.4545 9.72483H10.4531Z" stroke="#252F2C" stroke-width="1.5" stroke-linejoin="round"/>
<path d="M11.923 5.52943C11.9222 5.9183 11.7669 6.2909 11.4913 6.56531C11.2158 6.83972 10.8426 6.99347 10.4537 6.99277C10.0648 6.99347 9.69161 6.83972 9.41607 6.56531C9.14054 6.2909 8.98526 5.9183 8.98438 5.52943C8.98472 5.33683 9.02301 5.14618 9.09704 4.96837C9.17107 4.79056 9.2794 4.62907 9.41584 4.49312C9.55228 4.35718 9.71416 4.24944 9.89224 4.17605C10.0703 4.10267 10.2611 4.06508 10.4537 4.06543C10.6463 4.06508 10.8371 4.10267 11.0152 4.17605C11.1933 4.24944 11.3551 4.35718 11.4916 4.49312C11.628 4.62907 11.7363 4.79056 11.8104 4.96837C11.8844 5.14618 11.9227 5.33683 11.923 5.52943Z" stroke="#252F2C" stroke-width="1.5"/>
</g>
<defs>
<clipPath id="clip0_348_2131">
<rect width="16" height="16" fill="none"/>
</clipPath>
</defs>
</svg>
