<svg width="16" height="16" viewBox="0 0 16 16" fill="none" xmlns="http://www.w3.org/2000/svg">
<g clip-path="url(#clip0_348_2132)">
<rect width="16" height="16" fill="white"/>
<path d="M3.11106 2.66672H10.2222V7.02228H11.1111V2.66672C11.1111 2.43097 11.0174 2.20488 10.8507 2.03818C10.684 1.87148 10.4579 1.77783 10.2222 1.77783H3.11106C2.87531 1.77783 2.64922 1.87148 2.48252 2.03818C2.31582 2.20488 2.22217 2.43097 2.22217 2.66672V13.3334C2.22217 13.5691 2.31582 13.7952 2.48252 13.9619C2.64922 14.1286 2.87531 14.2223 3.11106 14.2223H10.2222C10.4579 14.2223 10.684 14.1286 10.8507 13.9619C11.0174 13.7952 11.1111 13.5691 11.1111 13.3334H3.11106V2.66672Z" fill="#252F2C"/>
<path d="M12.5158 7.68011C12.4308 7.6073 12.3214 7.56925 12.2095 7.57357C12.0977 7.57789 11.9916 7.62426 11.9124 7.70342C11.8333 7.78257 11.7869 7.88868 11.7826 8.00053C11.7782 8.11239 11.8163 8.22176 11.8891 8.30678L13.3913 9.77789H6.94689C6.82901 9.77789 6.71597 9.82471 6.63262 9.90806C6.54927 9.99141 6.50244 10.1045 6.50244 10.2223C6.50244 10.3402 6.54927 10.4533 6.63262 10.5366C6.71597 10.62 6.82901 10.6668 6.94689 10.6668H13.3913L11.8891 12.2046C11.8426 12.2444 11.8048 12.2934 11.7781 12.3486C11.7514 12.4037 11.7365 12.4638 11.7341 12.525C11.7317 12.5862 11.742 12.6472 11.7644 12.7043C11.7867 12.7613 11.8206 12.8131 11.8639 12.8564C11.9072 12.8997 11.959 12.9336 12.0161 12.956C12.0731 12.9783 12.1341 12.9886 12.1954 12.9862C12.2566 12.9839 12.3166 12.9689 12.3718 12.9422C12.4269 12.9155 12.4759 12.8777 12.5158 12.8312L15.1113 10.2534L12.5158 7.68011Z" fill="#252F2C"/>
</g>
<defs>
<clipPath id="clip0_348_2132">
<rect width="16" height="16" fill="none"/>
</clipPath>
</defs>
</svg>
