<svg width="24" height="24" viewBox="0 0 24 24" fill="none" xmlns="http://www.w3.org/2000/svg">
<g id="Icon-visible">
<path id="Vector" d="M0.814697 11.6962C0.847509 11.6222 1.64157 9.86062 3.40688 8.09531C5.75907 5.74312 8.73001 4.5 12 4.5C15.27 4.5 18.2409 5.74312 20.5931 8.09531C22.3584 9.86062 23.1563 11.625 23.1853 11.6962C23.228 11.7922 23.25 11.896 23.25 12.0009C23.25 12.1059 23.228 12.2097 23.1853 12.3056C23.1525 12.3797 22.3584 14.1403 20.5931 15.9056C18.2409 18.2569 15.27 19.5 12 19.5C8.73001 19.5 5.75907 18.2569 3.40688 15.9056C1.64157 14.1403 0.847509 12.3797 0.814697 12.3056C0.772053 12.2097 0.750017 12.1059 0.750017 12.0009C0.750017 11.896 0.772053 11.7922 0.814697 11.6962ZM12 18C14.8856 18 17.4066 16.9509 19.4934 14.8828C20.3497 14.0312 21.0782 13.0602 21.6563 12C21.0784 10.9396 20.3499 9.96858 19.4934 9.11719C17.4066 7.04906 14.8856 6 12 6C9.11438 6 6.59345 7.04906 4.50657 9.11719C3.64867 9.96843 2.91859 10.9395 2.33907 12C3.01501 13.2619 5.9597 18 12 18ZM12 7.5C12.89 7.5 13.7601 7.76392 14.5001 8.25839C15.2401 8.75285 15.8169 9.45566 16.1575 10.2779C16.4981 11.1002 16.5872 12.005 16.4135 12.8779C16.2399 13.7508 15.8113 14.5526 15.182 15.182C14.5527 15.8113 13.7508 16.2399 12.8779 16.4135C12.005 16.5872 11.1002 16.4981 10.2779 16.1575C9.45567 15.8169 8.75286 15.2401 8.2584 14.5001C7.76393 13.76 7.50001 12.89 7.50001 12C7.50125 10.8069 7.97575 9.66303 8.8194 8.81939C9.66304 7.97575 10.8069 7.50124 12 7.5ZM12 15C12.5934 15 13.1734 14.8241 13.6667 14.4944C14.1601 14.1648 14.5446 13.6962 14.7716 13.1481C14.9987 12.5999 15.0581 11.9967 14.9424 11.4147C14.8266 10.8328 14.5409 10.2982 14.1213 9.87868C13.7018 9.45912 13.1672 9.1734 12.5853 9.05764C12.0033 8.94189 11.4001 9.0013 10.852 9.22836C10.3038 9.45542 9.83524 9.83994 9.5056 10.3333C9.17596 10.8266 9.00001 11.4067 9.00001 12C9.00001 12.7956 9.31608 13.5587 9.87869 14.1213C10.4413 14.6839 11.2044 15 12 15Z" fill="#252F2C"/>
</g>
</svg>
