<svg width="180" height="180" viewBox="0 0 180 180" fill="none" xmlns="http://www.w3.org/2000/svg">
<path d="M89.9937 168.737C142.5 168.737 168.737 133.483 168.737 89.9937C168.737 46.5048 142.5 11.25 89.9937 11.25C37.4874 11.25 11.25 46.5048 11.25 89.9937C11.25 133.483 37.4874 168.737 89.9937 168.737Z" fill="url(#paint0_radial_5807_172)"/>
<path d="M89.9937 168.737C142.5 168.737 168.737 133.483 168.737 89.9937C168.737 46.5048 142.5 11.25 89.9937 11.25C37.4874 11.25 11.25 46.5048 11.25 89.9937C11.25 133.483 37.4874 168.737 89.9937 168.737Z" fill="url(#paint1_radial_5807_172)"/>
<path d="M89.9937 168.737C142.5 168.737 168.737 133.483 168.737 89.9937C168.737 46.5048 142.5 11.25 89.9937 11.25C37.4874 11.25 11.25 46.5048 11.25 89.9937C11.25 133.483 37.4874 168.737 89.9937 168.737Z" fill="url(#paint2_radial_5807_172)" fill-opacity="0.6"/>
<path d="M89.9937 168.737C142.5 168.737 168.737 133.483 168.737 89.9937C168.737 46.5048 142.5 11.25 89.9937 11.25C37.4874 11.25 11.25 46.5048 11.25 89.9937C11.25 133.483 37.4874 168.737 89.9937 168.737Z" fill="url(#paint3_radial_5807_172)"/>
<path d="M89.9937 168.737C142.5 168.737 168.737 133.483 168.737 89.9937C168.737 46.5048 142.5 11.25 89.9937 11.25C37.4874 11.25 11.25 46.5048 11.25 89.9937C11.25 133.483 37.4874 168.737 89.9937 168.737Z" fill="url(#paint4_radial_5807_172)"/>
<path d="M89.9937 168.737C142.5 168.737 168.737 133.483 168.737 89.9937C168.737 46.5048 142.5 11.25 89.9937 11.25C37.4874 11.25 11.25 46.5048 11.25 89.9937C11.25 133.483 37.4874 168.737 89.9937 168.737Z" fill="url(#paint5_radial_5807_172)"/>
<path d="M89.9937 168.737C142.5 168.737 168.737 133.483 168.737 89.9937C168.737 46.5048 142.5 11.25 89.9937 11.25C37.4874 11.25 11.25 46.5048 11.25 89.9937C11.25 133.483 37.4874 168.737 89.9937 168.737Z" fill="url(#paint6_radial_5807_172)"/>
<path d="M89.9937 168.737C142.5 168.737 168.737 133.483 168.737 89.9937C168.737 46.5048 142.5 11.25 89.9937 11.25C37.4874 11.25 11.25 46.5048 11.25 89.9937C11.25 133.483 37.4874 168.737 89.9937 168.737Z" fill="url(#paint7_radial_5807_172)"/>
<path d="M59.0625 106.875C73.0422 106.875 84.375 95.5422 84.375 81.5625C84.375 67.5828 73.0422 56.25 59.0625 56.25C45.0828 56.25 33.75 67.5828 33.75 81.5625C33.75 95.5422 45.0828 106.875 59.0625 106.875Z" fill="white"/>
<path d="M120.938 106.875C134.917 106.875 146.25 95.5422 146.25 81.5625C146.25 67.5828 134.917 56.25 120.938 56.25C106.958 56.25 95.625 67.5828 95.625 81.5625C95.625 95.5422 106.958 106.875 120.938 106.875Z" fill="white"/>
<path d="M67.5 95.625C73.7132 95.625 78.75 90.5882 78.75 84.375C78.75 78.1618 73.7132 73.125 67.5 73.125C61.2868 73.125 56.25 78.1618 56.25 84.375C56.25 90.5882 61.2868 95.625 67.5 95.625Z" fill="url(#paint8_linear_5807_172)"/>
<path d="M112.5 95.625C118.713 95.625 123.75 90.5882 123.75 84.375C123.75 78.1618 118.713 73.125 112.5 73.125C106.287 73.125 101.25 78.1618 101.25 84.375C101.25 90.5882 106.287 95.625 112.5 95.625Z" fill="url(#paint9_linear_5807_172)"/>
<path fill-rule="evenodd" clip-rule="evenodd" d="M73.125 123.75C73.125 120.643 75.6434 118.125 78.75 118.125H101.25C104.357 118.125 106.875 120.643 106.875 123.75C106.875 126.857 104.357 129.375 101.25 129.375H78.75C75.6434 129.375 73.125 126.857 73.125 123.75Z" fill="url(#paint10_linear_5807_172)"/>
<path fill-rule="evenodd" clip-rule="evenodd" d="M50.625 106.875C50.625 103.768 53.1434 101.25 56.25 101.25C60.3359 101.25 65.8573 102.275 70.5085 105.739C75.4349 109.408 78.75 115.355 78.75 123.75C78.75 132.145 75.4349 138.092 70.5085 141.761C65.8573 145.225 60.3359 146.25 56.25 146.25C53.1434 146.25 50.625 143.732 50.625 140.625C50.625 137.518 53.1434 135 56.25 135C58.7266 135 61.6426 134.337 63.7884 132.739C65.6589 131.346 67.5 128.855 67.5 123.75C67.5 118.645 65.6589 116.154 63.7884 114.761C61.6426 113.163 58.7266 112.5 56.25 112.5C53.1434 112.5 50.625 109.982 50.625 106.875Z" fill="url(#paint11_radial_5807_172)"/>
<path fill-rule="evenodd" clip-rule="evenodd" d="M129.375 106.875C129.375 103.768 126.857 101.25 123.75 101.25C119.664 101.25 114.143 102.275 109.492 105.739C104.565 109.408 101.25 115.355 101.25 123.75C101.25 132.145 104.565 138.092 109.492 141.761C114.143 145.225 119.664 146.25 123.75 146.25C126.857 146.25 129.375 143.732 129.375 140.625C129.375 137.518 126.857 135 123.75 135C121.273 135 118.357 134.337 116.212 132.739C114.341 131.346 112.5 128.855 112.5 123.75C112.5 118.645 114.341 116.154 116.212 114.761C118.357 113.163 121.273 112.5 123.75 112.5C126.857 112.5 129.375 109.982 129.375 106.875Z" fill="url(#paint12_radial_5807_172)"/>
<path fill-rule="evenodd" clip-rule="evenodd" d="M51.3049 38.6049C54.0948 35.5395 55.2267 31.975 55.6321 30.1678C56.0572 28.2733 57.9376 27.0821 59.8321 27.5072C61.7267 27.9322 62.9179 29.8126 62.4928 31.7072C61.9432 34.1568 60.4257 39.0297 56.5048 43.3377C52.4767 47.7634 46.1434 51.3281 36.5625 51.3281C34.6208 51.3281 33.0468 49.7541 33.0468 47.8125C33.0468 45.8709 34.6208 44.2969 36.5625 44.2969C44.183 44.2969 48.6221 41.5525 51.3049 38.6049Z" fill="url(#paint13_linear_5807_172)"/>
<path fill-rule="evenodd" clip-rule="evenodd" d="M51.3049 38.6049C54.0948 35.5395 55.2267 31.975 55.6321 30.1678C56.0572 28.2733 57.9376 27.0821 59.8321 27.5072C61.7267 27.9322 62.9179 29.8126 62.4928 31.7072C61.9432 34.1568 60.4257 39.0297 56.5048 43.3377C52.4767 47.7634 46.1434 51.3281 36.5625 51.3281C34.6208 51.3281 33.0468 49.7541 33.0468 47.8125C33.0468 45.8709 34.6208 44.2969 36.5625 44.2969C44.183 44.2969 48.6221 41.5525 51.3049 38.6049Z" fill="url(#paint14_radial_5807_172)"/>
<path fill-rule="evenodd" clip-rule="evenodd" d="M128.581 38.5008C125.814 35.3998 124.743 31.8366 124.368 30.1667C123.942 28.2723 122.061 27.0817 120.167 27.5074C118.272 27.9331 117.082 29.8139 117.507 31.7083C118.011 33.9495 119.445 38.8238 123.335 43.1826C127.336 47.665 133.698 51.3281 143.438 51.3281C145.379 51.3281 146.953 49.7541 146.953 47.8125C146.953 45.8709 145.379 44.2969 143.438 44.2969C135.687 44.2969 131.238 41.478 128.581 38.5008Z" fill="url(#paint15_radial_5807_172)"/>
<defs>
<radialGradient id="paint0_radial_5807_172" cx="0" cy="0" r="1" gradientUnits="userSpaceOnUse" gradientTransform="translate(106.875 39.375) rotate(100.923) scale(163.27)">
<stop stop-color="#72FFA9"/>
<stop offset="0.493469" stop-color="#00D26A"/>
<stop offset="1" stop-color="#8D65C5"/>
</radialGradient>
<radialGradient id="paint1_radial_5807_172" cx="0" cy="0" r="1" gradientUnits="userSpaceOnUse" gradientTransform="translate(90 70.3125) rotate(90) scale(109.687)">
<stop offset="0.81119" stop-color="#A7A1F6" stop-opacity="0"/>
<stop offset="0.972655" stop-color="#A092FF"/>
</radialGradient>
<radialGradient id="paint2_radial_5807_172" cx="0" cy="0" r="1" gradientUnits="userSpaceOnUse" gradientTransform="translate(101.25 78.75) rotate(135) scale(230.694)">
<stop offset="0.314853" stop-opacity="0"/>
<stop offset="1"/>
</radialGradient>
<radialGradient id="paint3_radial_5807_172" cx="0" cy="0" r="1" gradientUnits="userSpaceOnUse" gradientTransform="translate(152.542 63.2527) rotate(80.0297) scale(93.54)">
<stop stop-color="#71FFA9"/>
<stop offset="1" stop-color="#6EFFA6" stop-opacity="0"/>
</radialGradient>
<radialGradient id="paint4_radial_5807_172" cx="0" cy="0" r="1" gradientUnits="userSpaceOnUse" gradientTransform="translate(45.795 68.5966) rotate(50.3431) scale(39.9583)">
<stop stop-color="#35BE6B"/>
<stop offset="1" stop-color="#35BE6B" stop-opacity="0"/>
</radialGradient>
<radialGradient id="paint5_radial_5807_172" cx="0" cy="0" r="1" gradientUnits="userSpaceOnUse" gradientTransform="translate(126.958 46.5078) rotate(127.694) scale(8.2894 18.8121)">
<stop stop-color="#2AB962"/>
<stop offset="1" stop-color="#2AB663" stop-opacity="0"/>
</radialGradient>
<radialGradient id="paint6_radial_5807_172" cx="0" cy="0" r="1" gradientUnits="userSpaceOnUse" gradientTransform="translate(54.7001 87.2163) rotate(43.0564) scale(32.9143)">
<stop offset="0.426875" stop-color="#298C6B"/>
<stop offset="1" stop-color="#359877" stop-opacity="0"/>
</radialGradient>
<radialGradient id="paint7_radial_5807_172" cx="0" cy="0" r="1" gradientUnits="userSpaceOnUse" gradientTransform="translate(118.655 83.9781) rotate(125.256) scale(28.7506)">
<stop offset="0.426875" stop-color="#298C6B"/>
<stop offset="1" stop-color="#359877" stop-opacity="0"/>
</radialGradient>
<linearGradient id="paint8_linear_5807_172" x1="115.962" y1="73.125" x2="112.086" y2="95.7947" gradientUnits="userSpaceOnUse">
<stop stop-color="#553B3E"/>
<stop offset="1" stop-color="#3D2432"/>
</linearGradient>
<linearGradient id="paint9_linear_5807_172" x1="115.962" y1="73.125" x2="112.086" y2="95.7947" gradientUnits="userSpaceOnUse">
<stop stop-color="#553B3E"/>
<stop offset="1" stop-color="#3D2432"/>
</linearGradient>
<linearGradient id="paint10_linear_5807_172" x1="90" y1="118.125" x2="90" y2="129.375" gradientUnits="userSpaceOnUse">
<stop stop-color="#4E3F45"/>
<stop offset="0.212208" stop-color="#5F4D56"/>
<stop offset="0.95703" stop-color="#51275A"/>
</linearGradient>
<radialGradient id="paint11_radial_5807_172" cx="0" cy="0" r="1" gradientUnits="userSpaceOnUse" gradientTransform="translate(56.25 123.75) scale(22.5 22.5)">
<stop offset="0.509095" stop-color="#3E3537"/>
<stop offset="0.707019" stop-color="#523A4F"/>
<stop offset="1" stop-color="#6A5763"/>
</radialGradient>
<radialGradient id="paint12_radial_5807_172" cx="0" cy="0" r="1" gradientUnits="userSpaceOnUse" gradientTransform="translate(123.75 123.75) rotate(-180) scale(22.5 22.5)">
<stop offset="0.509095" stop-color="#3E3537"/>
<stop offset="0.707019" stop-color="#523A4F"/>
<stop offset="1" stop-color="#6A5763"/>
</radialGradient>
<linearGradient id="paint13_linear_5807_172" x1="53.4375" y1="28.1249" x2="53.4375" y2="36.5624" gradientUnits="userSpaceOnUse">
<stop offset="0.0299084" stop-color="#524049"/>
<stop offset="1" stop-color="#4A2C42"/>
</linearGradient>
<radialGradient id="paint14_radial_5807_172" cx="0" cy="0" r="1" gradientUnits="userSpaceOnUse" gradientTransform="translate(39.375 28.1248) rotate(54.4623) scale(24.194)">
<stop offset="0.541667" stop-color="#493032"/>
<stop offset="0.806723" stop-color="#5E445A"/>
<stop offset="0.955326" stop-color="#4A2C42"/>
</radialGradient>
<radialGradient id="paint15_radial_5807_172" cx="0" cy="0" r="1" gradientUnits="userSpaceOnUse" gradientTransform="translate(140.625 28.125) rotate(125.538) scale(24.194)">
<stop stop-color="#C2B4B5"/>
<stop offset="0.887405" stop-color="#462B45"/>
<stop offset="1" stop-color="#4A2C42"/>
</radialGradient>
</defs>
</svg>
